<svg width="191" height="135" viewBox="0 0 191 135" fill="none" xmlns="http://www.w3.org/2000/svg">
<rect width="191" height="135" rx="16" fill="#F9FAFC"/>
<g clip-path="url(#clip0_1_1107)">
<g clip-path="url(#clip1_1_1107)">
<path d="M62.6323 65.4251H67.4902V73.0342C65.9745 73.5773 64.0606 73.8751 62.0711 73.8751C54.0082 73.8751 49.2694 66.1753 49.2694 58.6553C49.2694 51.2799 53.5558 46.1065 59.5358 46.1065C63.3199 46.1065 65.5217 47.5361 67.4916 49.5275V52.01L71.1852 47.891C68.849 46.1283 65.4661 44.4531 60.6307 44.4531C50.0159 44.4531 45.1641 52.9218 45.1641 59.8815C45.1641 69.7879 51.6343 75.7556 59.7652 75.7556C63.7077 75.7556 67.2082 75.0844 71.2517 73.8297V65.9684C71.2517 65.5664 71.4101 65.2906 71.6469 65.0484L72.9228 63.6255H64.2582L62.6323 65.4251Z" fill="black" fill-opacity="0.24"/>
<path d="M84.3914 55.0845C78.2817 55.0845 74.4961 60.0632 74.4961 65.3478C74.4961 69.9092 77.5458 75.3248 83.7248 75.3248C89.6687 75.3248 93.3155 70.3364 93.3155 64.9593C93.3155 59.9505 89.7516 55.0863 84.3914 55.0863V55.0845ZM83.3777 56.536C87.6853 56.536 89.6037 62.7945 89.6037 67.2583C89.6037 73.8969 85.1379 74.0281 84.604 74.0281C82.5604 74.0281 81.132 72.6507 80.0628 70.8442C79.1217 69.1792 78.2017 66.086 78.2017 63.0636C78.2017 60.0529 79.0854 58.5829 80.4761 57.5014C81.6133 56.6907 82.6781 56.536 83.3763 56.536H83.3777Z" fill="black" fill-opacity="0.24"/>
<path d="M124.334 55.0825C118.998 55.0825 116.111 58.8501 116.111 63.0566C116.111 66.259 118.168 69.8718 122.412 69.8718H123.486C123.486 69.8718 123.194 70.664 123.192 71.4292C123.192 72.558 123.556 73.1919 124.328 74.1674C117.025 74.6636 114.09 77.9484 114.09 81.4788C114.09 84.5703 116.744 87.6129 122.323 87.6129C128.928 87.6129 132.348 83.524 132.348 79.5111C132.348 76.682 131.084 75.1313 127.884 72.457C126.943 71.6413 126.76 71.1218 126.76 70.5112C126.76 69.6366 127.229 69.0579 127.401 68.8394C127.704 68.4828 128.229 68.0758 128.425 67.8807C129.501 66.8648 131.02 65.3613 131.02 62.3606C131.02 60.3019 130.252 58.5308 128.502 56.8724H130.638L132.243 55.0829H124.334V55.0825ZM122.862 56.4213C123.83 56.4213 124.638 56.8032 125.492 57.5954C126.439 58.5473 127.952 61.1055 127.952 64.2709C127.952 67.6869 125.572 68.6221 124.284 68.6221C123.654 68.6221 122.898 68.4253 122.259 67.9375C120.838 66.9101 119.428 64.175 119.428 60.9205C119.428 57.9838 120.996 56.4213 122.862 56.4213ZM124.975 75.4642C125.382 75.4642 125.675 75.5014 125.675 75.5014C125.675 75.5014 126.635 76.2666 127.307 76.8383C128.869 78.2158 129.843 79.2687 129.843 81.1442C129.843 83.7226 127.699 85.7443 124.225 85.7443C120.413 85.7443 117.499 83.7647 117.499 80.5322C117.499 77.8544 119.495 75.5498 124.975 75.4642Z" fill="black" fill-opacity="0.24"/>
<path d="M133.396 74.7347H140.721L141.837 73.4903L139.736 73.1976C139.171 73.1202 138.835 72.5753 138.835 72.0471V47.3715C138.835 46.8855 139.037 46.6365 139.184 46.4783L140.506 45.0049H134.259L132.633 46.818H135.061V72.3783C135.061 72.7416 134.958 72.9888 134.738 73.2428L133.396 74.7347Z" fill="black" fill-opacity="0.24"/>
<path d="M150.646 55.0845C146.556 55.0845 142.211 58.561 142.211 64.8027C142.211 69.9576 145.328 75.3248 151.153 75.3248C152.606 75.3248 153.802 75.1165 154.922 74.5429C156.124 73.9257 157.281 72.9232 158.125 71.6634C156.531 72.5599 155.231 73.1486 153.504 73.1486C150.222 73.1486 147.058 70.508 145.951 65.6539L157.545 60.4281C156.875 57.7656 154.987 55.0845 150.648 55.0845H150.646ZM149.889 56.5124C152.084 56.5124 153.67 58.5257 153.67 60.1017C153.67 60.6113 153.384 60.8804 152.817 61.1294L145.69 64.3435C145.69 64.3435 145.497 63.3428 145.497 62.2613C145.497 57.7251 148.438 56.5124 149.889 56.5124Z" fill="black" fill-opacity="0.24"/>
<path d="M105.124 55.0845C99.0141 55.0845 95.2285 60.0632 95.2285 65.3478C95.2285 69.9092 98.2783 75.3248 104.457 75.3248C110.401 75.3248 114.048 70.3364 114.048 64.9593C114.048 59.9505 110.484 55.0863 105.124 55.0863V55.0845ZM104.11 56.536C108.418 56.536 110.336 62.7945 110.336 67.2583C110.336 73.8969 105.87 74.0281 105.336 74.0281C103.293 74.0281 101.865 72.6507 100.795 70.8442C99.8542 69.1792 98.9342 66.086 98.9342 63.0636C98.9342 60.0529 99.8178 58.5829 101.209 57.5014C102.346 56.6907 103.411 56.536 104.109 56.536H104.11Z" fill="black" fill-opacity="0.24"/>
</g>
</g>
<defs>
<clipPath id="clip0_1_1107">
<rect width="124.476" height="46.3569" fill="white" transform="translate(34.0742 44)"/>
</clipPath>
<clipPath id="clip1_1_1107">
<rect width="112.963" height="43.1842" fill="white" transform="translate(45.1602 44.4412)"/>
</clipPath>
</defs>
</svg>
