<svg width="191" height="135" viewBox="0 0 191 135" fill="none" xmlns="http://www.w3.org/2000/svg">
<rect width="191" height="135" rx="16" fill="#F9FAFC"/>
<g clip-path="url(#clip0_1_1102)">
<path d="M68.667 104.327V99.3861C68.7192 98.5455 68.4446 97.7205 67.9132 97.1215C67.3817 96.5226 66.6449 96.2076 65.8906 96.257C64.8965 96.1843 63.9458 96.7207 63.4095 97.6568C62.9205 96.7486 62.0252 96.2115 61.0761 96.257C60.2498 96.2104 59.4631 96.6553 59.0086 97.4263V96.4546H57.4727V104.327H59.0233V99.9955C58.9565 99.4504 59.1114 98.9006 59.4456 98.496C59.7799 98.0914 60.2586 97.8743 60.7512 97.9039C61.7702 97.9039 62.2871 98.645 62.2871 99.979V104.36H63.8378V99.9955C63.7737 99.451 63.9295 98.903 64.2632 98.4991C64.5968 98.0953 65.0739 97.8773 65.5657 97.9039C66.6142 97.9039 67.1163 98.645 67.1163 99.979V104.36L68.667 104.327ZM91.6095 96.4546H89.0841V94.0665H87.5335V96.4546H86.1305V98.0192H87.563V101.642C87.563 103.471 88.198 104.557 90.0145 104.557C90.6932 104.56 91.3587 104.349 91.9344 103.948L91.4913 102.482C91.0795 102.756 90.612 102.909 90.1327 102.927C89.3943 102.927 89.1137 102.4 89.1137 101.609V98.0192H91.6243L91.6095 96.4546ZM104.709 96.257C103.946 96.2319 103.232 96.6743 102.848 97.4098V96.4546H101.327V104.327H102.863V99.9131C102.863 98.6121 103.365 97.8874 104.34 97.8874C104.668 97.8824 104.994 97.9496 105.3 98.085L105.772 96.4381C105.421 96.2982 105.052 96.2258 104.679 96.224L104.709 96.257ZM84.9047 97.0804C84.0353 96.504 83.0357 96.2182 82.0249 96.257C80.2379 96.257 79.0712 97.2122 79.0712 98.7768C79.0712 100.061 79.9278 100.852 81.508 101.099L82.2464 101.214C83.0882 101.346 83.4869 101.593 83.4869 102.038C83.4869 102.647 82.9258 102.993 81.8772 102.993C81.0338 103.02 80.2067 102.73 79.5291 102.169L78.7906 103.503C79.6853 104.2 80.7569 104.558 81.8477 104.525C83.8857 104.525 85.0672 103.454 85.0672 101.955C85.0672 100.457 84.1368 99.8473 82.6009 99.6002L81.8624 99.4849C81.1979 99.3861 80.6662 99.2379 80.6662 98.7109C80.6662 98.1839 81.1683 97.7886 82.0101 97.7886C82.7882 97.7987 83.5509 98.0312 84.2254 98.4638L84.9047 97.0804ZM126.042 96.257C125.279 96.2319 124.565 96.6743 124.181 97.4098V96.4546H122.66V104.327H124.196V99.9131C124.196 98.6121 124.698 97.8874 125.672 97.8874C126.001 97.8824 126.327 97.9496 126.632 98.085L127.105 96.4381C126.754 96.2982 126.385 96.2258 126.012 96.224L126.042 96.257ZM106.252 100.374C106.215 101.493 106.603 102.577 107.32 103.361C108.036 104.144 109.016 104.555 110.018 104.492C110.94 104.544 111.847 104.209 112.558 103.553L111.82 102.169C111.289 102.621 110.641 102.869 109.974 102.878C108.797 102.771 107.89 101.675 107.89 100.358C107.89 99.0407 108.797 97.9442 109.974 97.838C110.641 97.8463 111.289 98.0947 111.82 98.5462L112.558 97.1628C111.847 96.5066 110.94 96.1717 110.018 96.224C109.016 96.1607 108.036 96.5712 107.32 97.3549C106.603 98.1385 106.215 99.2227 106.252 100.341V100.374ZM120.637 100.374V96.4546H119.101V97.4098C118.571 96.6505 117.747 96.2215 116.885 96.257C114.846 96.257 113.193 98.1003 113.193 100.374C113.193 102.648 114.846 104.492 116.885 104.492C117.747 104.527 118.571 104.098 119.101 103.339V104.294H120.637V100.374ZM114.921 100.374C114.989 99.082 115.972 98.0876 117.132 98.1362C118.292 98.1847 119.204 99.2584 119.185 100.553C119.166 101.847 118.223 102.887 117.063 102.894C116.472 102.902 115.904 102.635 115.498 102.157C115.091 101.678 114.882 101.032 114.921 100.374ZM96.387 96.257C94.348 96.2888 92.7181 98.158 92.7466 100.432C92.7752 102.706 94.4513 104.523 96.4904 104.492C97.5528 104.552 98.5975 104.171 99.4219 103.421L98.6835 102.153C98.1004 102.674 97.3781 102.964 96.6307 102.976C95.575 103.078 94.6389 102.224 94.5188 101.05H99.7616C99.7616 100.835 99.7616 100.621 99.7616 100.391C99.7616 97.9204 98.3881 96.2734 96.4092 96.2734L96.387 96.257ZM96.387 97.7886C96.8512 97.7776 97.3003 97.9727 97.6354 98.331C97.9706 98.6893 98.1643 99.1814 98.174 99.699H94.4819C94.5375 98.5996 95.3706 97.751 96.3575 97.7886H96.387ZM134.866 100.391V93.2925H133.389V97.4098C132.86 96.6505 132.035 96.2215 131.174 96.257C129.135 96.257 127.482 98.1003 127.482 100.374C127.482 102.648 129.135 104.492 131.174 104.492C132.035 104.527 132.86 104.098 133.389 103.339V104.294H134.866V100.391ZM137.428 103.182C137.524 103.181 137.619 103.201 137.709 103.24C137.793 103.279 137.871 103.334 137.938 103.405C138.002 103.476 138.055 103.559 138.093 103.652C138.168 103.846 138.168 104.067 138.093 104.261C138.055 104.353 138.002 104.437 137.938 104.508C137.871 104.578 137.793 104.634 137.709 104.673C137.62 104.716 137.525 104.739 137.428 104.739C137.142 104.736 136.883 104.55 136.763 104.261C136.689 104.066 136.689 103.846 136.763 103.652C136.801 103.559 136.854 103.476 136.919 103.405C136.985 103.334 137.063 103.279 137.147 103.24C137.244 103.197 137.347 103.178 137.45 103.182H137.428ZM137.428 104.574C137.502 104.574 137.575 104.558 137.642 104.525C137.706 104.493 137.763 104.448 137.812 104.393C138.003 104.16 138.003 103.802 137.812 103.569C137.763 103.514 137.706 103.469 137.642 103.438C137.575 103.405 137.502 103.388 137.428 103.388C137.354 103.389 137.282 103.405 137.214 103.438C137.148 103.468 137.087 103.513 137.037 103.569C136.845 103.802 136.845 104.16 137.037 104.393C137.087 104.449 137.148 104.494 137.214 104.525C137.288 104.56 137.369 104.577 137.45 104.574H137.428ZM137.472 103.594C137.541 103.59 137.609 103.614 137.664 103.66C137.71 103.702 137.735 103.767 137.731 103.833C137.733 103.888 137.714 103.942 137.679 103.981C137.636 104.024 137.582 104.051 137.524 104.055L137.738 104.327H137.568L137.369 104.055H137.302V104.327H137.162V103.602L137.472 103.594ZM137.31 103.734V103.932H137.472C137.501 103.941 137.532 103.941 137.561 103.932C137.571 103.908 137.571 103.881 137.561 103.858C137.571 103.834 137.571 103.807 137.561 103.783C137.532 103.774 137.501 103.774 137.472 103.783L137.31 103.734ZM129.187 100.391C129.256 99.0985 130.238 98.1041 131.398 98.1526C132.558 98.2012 133.47 99.2749 133.451 100.569C133.433 101.864 132.49 102.904 131.329 102.911C130.738 102.919 130.17 102.652 129.764 102.173C129.357 101.695 129.148 101.049 129.187 100.391ZM77.3286 100.391V96.4546H75.7927V97.4098C75.2635 96.6505 74.4392 96.2215 73.5774 96.257C71.5384 96.257 69.8854 98.1003 69.8854 100.374C69.8854 102.648 71.5384 104.492 73.5774 104.492C74.4392 104.527 75.2635 104.098 75.7927 103.339V104.294H77.3286V100.391ZM71.6133 100.391C71.6816 99.0985 72.6636 98.1041 73.8236 98.1526C74.9836 98.2012 75.8961 99.2749 75.8773 100.569C75.8586 101.864 74.9155 102.904 73.7547 102.911C73.161 102.924 72.5898 102.658 72.1799 102.179C71.77 101.7 71.5591 101.051 71.5985 100.391H71.6133Z" fill="black" fill-opacity="0.22"/>
<path d="M136.491 78.5374V77.253H136.838V76.9873H135.959V77.253H136.336V78.5374H136.491ZM138.196 78.5374V76.9873H137.931L137.62 78.0945L137.31 76.9873H137.074V78.5374H137.266V77.3748L137.554 78.3824H137.753L138.041 77.3748V78.5485L138.196 78.5374Z" fill="black" fill-opacity="0.22"/>
<path d="M93.9254 83.7879C94.1352 83.9839 94.3594 84.1799 94.58 84.3719C90.3235 87.5039 85.2135 89.3238 79.7274 89.3238C64.9108 89.3278 52.9043 76.0479 52.9043 59.6639C52.9043 43.284 64.9108 30 79.7237 30C85.2135 30 90.3235 31.824 94.5692 34.952C94.3522 35.156 94.1352 35.344 93.9725 35.552C87.622 41.62 83.9875 50.4159 83.9875 59.6639C83.9875 68.9079 87.6075 77.7039 93.9254 83.7879ZM112.879 30C107.382 30 102.279 31.824 98.0337 34.952C98.2507 35.156 98.4677 35.344 98.6304 35.552C104.981 41.62 108.615 50.4159 108.615 59.6639C108.615 68.9039 104.995 77.6919 98.6774 83.7879C98.4677 83.9839 98.2435 84.1799 98.0229 84.3719C102.279 87.5039 107.382 89.3238 112.876 89.3238C127.692 89.3278 139.699 76.0479 139.699 59.6639C139.699 43.288 127.692 30 112.879 30ZM96.3014 36.36C95.9543 36.66 95.6179 36.96 95.2888 37.284C89.6327 42.72 86.0633 50.7239 86.0633 59.6639C86.0633 68.6079 89.6327 76.6079 95.2888 82.0439C95.6143 82.3639 95.9579 82.6759 96.3014 82.9719C96.6486 82.6759 96.9849 82.3639 97.314 82.0439C102.967 76.6079 106.54 68.6079 106.54 59.6639C106.54 50.7239 102.97 42.72 97.314 37.284C96.9886 36.964 96.6486 36.66 96.3014 36.36Z" fill="black" fill-opacity="0.22"/>
</g>
<defs>
<clipPath id="clip0_1_1102">
<rect width="86.7943" height="74.9354" fill="white" transform="translate(52.9062 30)"/>
</clipPath>
</defs>
</svg>
