<svg width="191" height="135" viewBox="0 0 191 135" fill="none" xmlns="http://www.w3.org/2000/svg">
<rect width="191" height="135" rx="16" fill="#F9FAFC"/>
<g clip-path="url(#clip0_1_1080)">
<path fill-rule="evenodd" clip-rule="evenodd" d="M73.4447 86.268C70.344 89.7896 66.2144 91.724 61.9368 91.6586C57.638 91.7362 53.4843 89.8014 50.3636 86.268C48.8953 84.5667 47.7279 82.5304 46.9307 80.2798C46.1335 78.0292 45.7227 75.6103 45.7227 73.1664C45.7227 70.7226 46.1335 68.3036 46.9307 66.0531C47.7279 63.8025 48.8953 61.7662 50.3636 60.0649C53.4804 56.5105 57.6419 54.563 61.9499 54.643C66.2275 54.5776 70.3571 56.512 73.4577 60.0336C74.9277 61.7338 76.0966 63.7698 76.8948 66.0205C77.6931 68.2712 78.1044 70.6907 78.1044 73.1352C78.1044 75.5797 77.6931 77.9992 76.8948 80.2499C76.0966 82.5006 74.9277 84.5366 73.4577 86.2367M61.9499 60.6742C60.5845 60.6585 59.2306 60.9734 57.9698 61.6C56.7091 62.2266 55.5677 63.1519 54.6144 64.3201C53.6612 65.4882 52.9159 66.875 52.4236 68.3968C51.9313 69.9186 51.702 71.5437 51.7498 73.1742C51.7498 74.7706 52.013 76.3514 52.5242 77.8262C53.0355 79.3011 53.7849 80.6412 54.7297 81.77C55.6744 82.8988 56.796 83.7942 58.0304 84.4052C59.2647 85.0161 60.5877 85.3305 61.9238 85.3305C63.2598 85.3305 64.5828 85.0161 65.8172 84.4052C67.0515 83.7942 68.1731 82.8988 69.1178 81.77C70.0626 80.6412 70.812 79.3011 71.3233 77.8262C71.8346 76.3514 72.0977 74.7706 72.0977 73.1742C72.1453 71.549 71.9177 69.9291 71.4285 68.4115C70.9394 66.8939 70.1988 65.51 69.2512 64.3428C68.3035 63.1755 67.1684 62.2489 65.9138 61.6185C64.6592 60.9881 63.3109 60.6669 61.9499 60.6742ZM111.643 59.0024L99.2065 92.143L98.5003 91.9867C94.9434 91.2211 94.2241 90.1586 92.5634 85.8461L83.2394 61.5805H79.7347V55.6899H92.9818V61.5805H89.8172L97.3103 81.6586L104.581 61.5805H100.658V55.6899H111.643V59.0024ZM141.72 86.268C138.579 89.7336 134.461 91.6582 130.186 91.6582C125.911 91.6582 121.793 89.7336 118.652 86.268C117.184 84.5667 116.016 82.5304 115.219 80.2798C114.422 78.0292 114.011 75.6103 114.011 73.1664C114.011 70.7226 114.422 68.3036 115.219 66.0531C116.016 63.8025 117.184 61.7662 118.652 60.0649C121.793 56.5992 125.911 54.6747 130.186 54.6747C134.461 54.6747 138.579 56.5992 141.72 60.0649C143.193 61.7628 144.365 63.798 145.165 66.049C145.966 68.3001 146.378 70.7207 146.378 73.1664C146.378 75.6122 145.966 78.0328 145.165 80.2838C144.365 82.5348 143.193 84.5701 141.72 86.268ZM130.278 60.6742C128.912 60.6586 127.557 60.9734 126.296 61.5998C125.034 62.2263 123.892 63.1513 122.938 64.3192C121.984 65.4872 121.237 66.8738 120.743 68.3956C120.249 69.9175 120.018 71.543 120.064 73.1742C120.064 74.7706 120.328 76.3514 120.839 77.8262C121.35 79.3011 122.1 80.6412 123.044 81.77C123.989 82.8988 125.111 83.7942 126.345 84.4052C127.579 85.0161 128.902 85.3305 130.238 85.3305C131.574 85.3305 132.897 85.0161 134.132 84.4052C135.366 83.7942 136.488 82.8988 137.432 81.77C138.377 80.6412 139.127 79.3011 139.638 77.8262C140.149 76.3514 140.412 74.7706 140.412 73.1742C140.462 71.5498 140.236 69.9302 139.748 68.4127C139.26 66.8952 138.521 65.5111 137.574 64.3436C136.628 63.1761 135.494 62.2492 134.24 61.6186C132.986 60.9881 131.638 60.6669 130.278 60.6742Z" fill="black" fill-opacity="0.25"/>
</g>
<defs>
<clipPath id="clip0_1_1080">
<rect width="100.693" height="37.5" fill="white" transform="translate(45.7324 54.6428)"/>
</clipPath>
</defs>
</svg>
