<svg width="191" height="135" viewBox="0 0 191 135" fill="none" xmlns="http://www.w3.org/2000/svg">
<rect width="191" height="135" rx="16" fill="#F9FAFC"/>
<g clip-path="url(#clip0_1_1085)">
<path d="M130.261 57.5803H123.197C122.714 57.5803 122.302 58 122.227 58.5697L119.371 80.1967C119.314 80.6235 119.59 81.0094 119.952 81.0094H123.577C123.915 81.0094 124.203 80.716 124.255 80.3168L125.066 74.1858C125.141 73.616 125.552 73.1964 126.035 73.1964H128.27C132.923 73.1964 135.608 70.5077 136.31 65.1791C136.626 62.8486 136.323 61.0173 135.409 59.7353C134.405 58.3256 132.624 57.5803 130.261 57.5803ZM131.076 65.479C130.69 68.5066 128.754 68.5066 126.88 68.5066H125.815L126.562 62.8539C126.608 62.512 126.854 62.2603 127.144 62.2603H127.632C128.907 62.2603 130.112 62.2603 130.733 63.1276C131.104 63.6469 131.216 64.4161 131.076 65.479Z" fill="#A1A7B3"/>
<path d="M79.8819 57.5803H72.8179C72.335 57.5803 71.9239 58 71.8483 58.5697L68.9917 80.1967C68.9355 80.6235 69.2117 81.0094 69.5736 81.0094H72.9465C73.4294 81.0094 73.8405 80.5901 73.9161 80.0204L74.6869 74.1858C74.7622 73.616 75.1733 73.1964 75.6562 73.1964H77.8916C82.5446 73.1964 85.2298 70.5077 85.9318 65.1791C86.2477 62.8486 85.9445 61.0173 85.0308 59.7353C84.0256 58.3256 82.2449 57.5803 79.8819 57.5803ZM80.6971 65.479C80.3111 68.5066 78.3745 68.5066 76.5016 68.5066H75.4359L76.1832 62.8539C76.2286 62.512 76.475 62.2603 76.7648 62.2603H77.2534C78.5284 62.2603 79.733 62.2603 80.3536 63.1276C80.7251 63.6469 80.8375 64.4161 80.6971 65.479Z" fill="#A1A7B3"/>
<path d="M100.997 65.3825H97.6145C97.3247 65.3825 97.078 65.6342 97.0326 65.9761L96.884 67.1054L96.6475 66.6964C95.9147 65.4269 94.2823 65.0027 92.652 65.0027C88.9153 65.0027 85.7227 68.384 85.1014 73.1261C84.7779 75.4919 85.2369 77.753 86.3605 79.3311C87.3926 80.781 88.8657 81.3845 90.6208 81.3845C93.6327 81.3845 95.3036 79.0737 95.3036 79.0737L95.1525 80.1965C95.0956 80.6233 95.3718 81.0096 95.7341 81.0096H98.7803C99.2632 81.0096 99.674 80.5903 99.7496 80.021L101.578 66.1952C101.635 65.768 101.359 65.3825 100.997 65.3825ZM96.2827 73.2436C95.956 75.551 94.4216 77.1003 92.4647 77.1003C91.4837 77.1003 90.6982 76.7235 90.1934 76.0101C89.6931 75.3031 89.5048 74.2955 89.6636 73.1735C89.968 70.8866 91.5272 69.2873 93.4543 69.2873C94.4146 69.2873 95.1947 69.6675 95.7093 70.3877C96.2275 71.1129 96.431 72.1269 96.2827 73.2436Z" fill="#A1A7B3"/>
<path d="M151.375 65.3825H147.993C147.703 65.3825 147.457 65.6342 147.411 65.9761L147.263 67.1054L147.026 66.6964C146.293 65.4269 144.661 65.0027 143.031 65.0027C139.294 65.0027 136.101 68.384 135.48 73.1261C135.157 75.4919 135.616 77.753 136.739 79.3311C137.772 80.781 139.245 81.3845 141 81.3845C144.012 81.3845 145.682 79.0737 145.682 79.0737L145.531 80.1965C145.475 80.6233 145.751 81.0096 146.113 81.0096H149.159C149.642 81.0096 150.053 80.5903 150.128 80.021L151.957 66.1952C152.014 65.768 151.737 65.3825 151.375 65.3825ZM146.662 73.2436C146.335 75.551 144.801 77.1003 142.844 77.1003C141.863 77.1003 141.077 76.7235 140.572 76.0101C140.072 75.3031 139.884 74.2955 140.042 73.1735C140.347 70.8866 141.906 69.2873 143.833 69.2873C144.793 69.2873 145.573 69.6675 146.088 70.3877C146.606 71.1129 146.81 72.1269 146.662 73.2436Z" fill="#A1A7B3"/>
<path d="M119.011 65.3822H115.611C115.286 65.3822 114.982 65.5752 114.799 65.8962L110.109 74.1432L108.121 66.2181C107.997 65.7222 107.615 65.3818 107.181 65.3818H103.839C103.436 65.3818 103.152 65.8557 103.282 66.3121L107.026 79.4324L103.504 85.364C103.228 85.8299 103.507 86.4739 103.985 86.4739H107.381C107.703 86.4739 108.005 86.2855 108.188 85.9694L119.495 66.4857C119.765 66.0198 119.486 65.3822 119.011 65.3822Z" fill="#A1A7B3"/>
<path d="M155.362 58.1747L152.462 80.1974C152.406 80.6238 152.682 81.0097 153.044 81.0097H155.96C156.443 81.0097 156.854 80.5905 156.93 80.0207L159.788 58.3938C159.845 57.9669 159.569 57.5811 159.207 57.5811H155.944C155.654 57.5807 155.407 57.8328 155.362 58.1747Z" fill="#A1A7B3"/>
<path opacity="0.68" d="M55.0844 58.7341C55.4631 55.8409 55.0819 53.8728 53.7762 52.0894C52.3387 50.1266 49.7418 49.2856 46.4192 49.2856H36.7743C36.0954 49.2856 35.517 49.8777 35.4114 50.6819L31.395 81.2016C31.316 81.8038 31.7044 82.3481 32.2127 82.3481H38.167L37.7561 85.4712C37.6869 85.9981 38.0263 86.4743 38.4714 86.4743H43.4904C44.0843 86.4743 44.59 85.9565 44.6826 85.2531L44.7319 84.947L45.6773 77.7622L45.7383 77.3652C45.8309 76.6622 46.3367 76.1436 46.9306 76.1436H47.6813C52.5435 76.1436 56.3507 73.7766 57.4629 66.9303C57.9279 64.0697 57.6873 61.6819 56.4581 60.0031C56.0867 59.4963 55.624 59.0766 55.0844 58.7341Z" fill="#A1A7B3"/>
<path opacity="0.7" d="M55.0844 58.7341C55.4631 55.8409 55.0819 53.8728 53.7762 52.0894C52.3387 50.1266 49.7418 49.2856 46.4192 49.2856H36.7743C36.0954 49.2856 35.517 49.8777 35.4114 50.6819L31.395 81.2016C31.316 81.8038 31.7044 82.3481 32.2127 82.3481H38.167L39.6627 70.9819L39.6162 71.3383C39.7221 70.5345 40.2951 69.9421 40.9744 69.9421H43.8046C49.3625 69.9421 53.7146 67.236 54.9858 59.4103C55.0238 59.1792 55.0557 58.9546 55.0844 58.7341Z" fill="#A1A7B3"/>
<path d="M41.2696 58.7724C41.3331 58.2891 41.5923 57.8928 41.941 57.6928C42.0993 57.6019 42.2766 57.5512 42.4622 57.5512H50.0224C50.9182 57.5512 51.7533 57.6216 52.5166 57.769C52.7347 57.811 52.9471 57.8595 53.1535 57.9144C53.3596 57.9694 53.56 58.0303 53.7538 58.0985C53.8508 58.1322 53.9459 58.1682 54.0398 58.2053C54.4147 58.3546 54.7639 58.5303 55.0851 58.7345C55.4637 55.8413 55.0826 53.8731 53.7768 52.0898C52.3387 50.1266 49.7418 49.2856 46.4192 49.2856H36.7743C36.0954 49.2856 35.517 49.8777 35.4114 50.6819L31.395 81.2016C31.316 81.8038 31.7044 82.3481 32.2127 82.3481H38.167L39.6627 70.9819L41.2696 58.7724Z" fill="#A1A7B3"/>
</g>
<defs>
<clipPath id="clip0_1_1085">
<rect width="128.903" height="37.5" fill="white" transform="translate(31.3848 49.2856)"/>
</clipPath>
</defs>
</svg>
