<svg xmlns="http://www.w3.org/2000/svg" width="191" height="135" viewBox="0 0 191 135" fill="none">
<rect width="191" height="135" rx="16" fill="#F9FAFC"/>
<mask id="mask0_1_1075" style="mask-type:luminance" maskUnits="userSpaceOnUse" x="20" y="43" width="151" height="50">
<path d="M20.1055 43.0757H170.769V92.0841H20.1055V43.0757Z" fill="#312F2D"/>
</mask>
<g mask="url(#mask0_1_1075)">
<path fill-rule="evenodd" clip-rule="evenodd" d="M35.8321 65.1206C32.5851 64.1788 30.8057 63.4463 30.8057 62.2952C30.8057 61.3184 31.8288 60.7603 33.6527 60.7603C36.9887 60.7603 40.4135 61.772 42.7711 62.6787L44.1055 56.2258C42.2373 55.5281 38.4119 54.377 33.1189 54.377C29.3825 54.377 26.2686 55.1443 24.0448 56.5746C21.7316 58.0744 20.5306 60.2371 20.5306 62.8532C20.5306 67.597 24.2226 69.6203 30.2275 71.3294C34.0973 72.4107 35.3874 73.1782 35.3874 74.3641C35.3874 75.5152 34.1417 76.1779 31.8732 76.1779C29.0709 76.1779 24.4452 75.0966 21.4204 73.7015L20.0859 80.2242C22.6657 81.3753 27.4696 82.5612 32.4517 82.5612C36.4102 82.5612 39.7019 81.8287 41.9261 80.4335C44.4168 78.8986 45.7068 76.6315 45.7068 73.7015C45.7068 68.8528 41.9261 66.8297 35.8321 65.1206ZM67.4302 61.3184L68.7646 54.9003H61.7198V47.109L52.2481 48.3312L50.8804 54.9003L47.549 55.3241L46.302 61.3184H50.8667V73.9107C50.8667 77.1895 51.9342 79.4569 54.1137 80.8521C55.9375 82.0032 58.5616 82.5612 62.2536 82.5612C65.1003 82.5612 66.835 82.1776 68.036 81.9333V75.1314C67.3688 75.2711 65.8565 75.5152 64.8334 75.5152C62.6539 75.5152 61.7198 74.6433 61.7198 72.655V61.3184H67.4302ZM88.5861 54.5254C85.4725 54.5254 82.9815 55.8073 82.003 58.1094L81.3358 54.9003H71.6836V82.0379H82.7146V64.4229C84.0937 63.0973 86.0507 62.618 88.7195 62.618C89.298 62.618 89.9205 62.618 90.6768 62.7227V54.7347C89.9205 54.5952 89.2533 54.5254 88.5861 54.5254ZM98.9058 52.2143C102.108 52.2143 104.688 50.1565 104.688 47.645C104.688 45.0985 102.108 43.0754 98.9058 43.0754C95.6585 43.0754 93.0787 45.0985 93.0787 47.645C93.0787 50.1565 95.6585 52.2143 98.9058 52.2143ZM93.3456 54.9003H104.421V82.0379H93.3456V54.9003ZM135.808 57.3419C133.851 55.3536 131.137 54.377 127.668 54.377C124.465 54.377 121.663 55.4235 119.039 57.621L118.46 54.9003H108.764V92.0838L119.795 90.6538V81.9333C121.485 82.3519 123.22 82.5612 124.777 82.5612C127.534 82.5612 131.538 82.0032 134.651 79.3522C137.631 76.8057 139.144 72.8643 139.144 67.6669C139.144 63.0625 138.032 59.5745 135.808 57.3419ZM126.645 74.085C125.755 75.4106 124.376 76.1083 122.775 76.1083C121.663 76.1083 120.684 75.9338 119.795 75.5851V62.6787C121.663 61.1441 123.353 60.9696 123.976 60.9696C126.778 60.9696 128.157 63.3417 128.157 67.9808C128.157 70.6317 127.668 72.6898 126.645 74.085ZM170.77 68.2249C170.77 63.8997 169.569 60.4812 167.211 58.0744C164.809 55.6328 161.206 54.377 156.625 54.377C147.239 54.377 141.412 59.8185 141.412 68.5388C141.412 73.4223 142.969 77.0849 146.038 79.4218C148.796 81.5147 152.755 82.5612 157.87 82.5612C162.585 82.5612 166.944 81.6892 169.702 80.259L168.501 74.3293C165.788 75.4804 162.63 76.1083 159.071 76.1083C156.936 76.1083 155.468 75.7593 154.401 75.0268C153.244 74.2595 152.577 73.0037 152.355 71.2248H170.636C170.681 70.8062 170.77 68.8528 170.77 68.2249ZM152.266 65.9227C152.577 62.0509 153.911 60.2371 156.447 60.2371C158.938 60.2371 160.228 62.0859 160.406 65.9227H152.266Z" fill="#1A1918"/>
</g>
</svg>