<svg width="191" height="135" viewBox="0 0 191 135" fill="none" xmlns="http://www.w3.org/2000/svg">
<rect width="191" height="135" rx="16" fill="#F9FAFC"/>
<path fill-rule="evenodd" clip-rule="evenodd" d="M116.608 47.7815C114.761 46.9565 111.882 46.0715 108.277 46.0715C99.0952 46.0715 92.6298 51.5958 92.576 59.5147C92.5222 65.369 97.1852 68.6326 100.718 70.5826C104.332 72.5787 105.543 73.8526 105.534 75.6355C105.507 78.3655 102.637 79.6126 99.9739 79.6126C96.2526 79.6126 94.2708 78.9955 91.222 77.4751L90.0294 76.8269L88.7202 85.9469C90.8902 87.0826 94.9075 88.0683 99.0772 88.1197C108.842 88.1197 115.182 82.6587 115.254 74.2019C115.29 69.568 112.815 66.0419 107.453 63.134C104.206 61.2483 102.216 59.9926 102.234 58.0844C102.234 56.3915 103.919 54.5808 107.56 54.5808C110.6 54.524 112.797 55.3158 114.51 56.1408L115.344 56.6122L116.608 47.7815ZM140.434 46.8172H133.251C131.027 46.8172 129.368 47.5437 128.391 50.1965L114.59 87.5283H124.347C124.347 87.5283 125.943 82.5087 126.301 81.4072C127.369 81.4072 136.847 81.4244 138.201 81.4244C138.479 82.8494 139.331 87.5283 139.331 87.5283H147.957L140.434 46.8183V46.8172ZM73.6105 87.5165L79.4213 46.7787H88.7112L82.9005 87.5144H73.6105V87.5165ZM55.748 68.9444L56.7254 74.5908L65.8181 46.8065H75.664L61.0297 87.4672L51.2017 87.478L42.934 52.0994C40.0824 50.2072 36.8274 48.6858 33.1777 47.6315L33.2943 46.783H48.2784C50.296 46.873 51.928 47.6433 52.4929 50.2222L55.748 68.9422V68.9444ZM128.974 73.0758C129.745 70.7294 132.677 61.6887 132.677 61.6887C132.623 61.7958 133.439 59.3294 133.915 57.7994L134.542 61.3137C134.542 61.3137 136.318 71.0369 136.694 73.0758H128.974Z" fill="black" fill-opacity="0.21"/>
</svg>
