<svg xmlns="http://www.w3.org/2000/svg" width="228" height="15" viewBox="0 0 228 15" fill="none">
<path d="M1.46094 7.79888C36.6057 7.79888 73.3937 7.79888 108.236 7.79888C121.442 7.79888 134.994 5.91276 148.474 5.91276C163.201 5.91276 177.384 2.14051 191.959 2.14051C202.647 2.14051 213.335 2.14051 224.023 2.14051C241.22 2.14051 189.664 3.77744 172.469 4.02663C161.51 4.18546 150.276 4.82781 139.462 3.08357C104.49 -2.55704 69.3031 5.91276 34.992 5.91276C28.8446 5.91276 22.6973 5.91276 16.5499 5.91276C2.71765 5.91276 44.3564 4.34088 58.0446 6.33189C73.842 8.6297 90.83 8.82036 106.246 6.01754C111.567 5.05004 123.632 6.96105 110.437 7.69409C93.0417 8.66049 76.5594 10.2046 59.302 7.90366C55.8061 7.43754 29.1082 6.25124 44.4226 3.18836C60.9118 -0.109489 77.1138 5.20197 93.4618 5.91276C103.097 6.3317 112.46 7.79888 122.173 7.79888C129.228 7.79888 108.062 7.79888 101.006 7.79888C89.2231 7.79888 78.2819 4.02663 66.4274 4.02663C62.6901 4.02663 58.9527 4.02663 55.2154 4.02663C53.4509 4.02663 39.4784 3.91123 47.6709 3.18836C64.9095 1.66731 82.7122 7.79888 100.273 7.79888C113.488 7.79888 125.944 5.57528 138.938 4.13142C154.306 2.42386 170.541 5.91276 184.834 5.91276C190.813 5.91276 196.065 9.50891 202.228 9.685C217.779 10.1293 206.546 13.2449 196.989 13.4572C184.879 13.7263 171.871 12.9764 159.79 11.4663C137.493 8.6792 114.631 9.685 91.9948 9.685C80.9924 9.685 69.9901 9.685 58.9877 9.685C43.0829 9.685 90.7611 11.3795 106.665 11.5711C124.347 11.7842 144.091 13.7231 161.362 9.26586C168.305 7.47419 177.619 5.91276 184.834 5.91276C191.482 5.91276 197.411 7.79888 204.324 7.79888C211.32 7.79888 204.032 9.91463 201.076 10.5233C192.553 12.2779 183.541 11.5711 174.879 11.5711C168.775 11.5711 163.168 12.0139 173.727 11.152C184.159 10.3004 194.386 9.685 204.848 9.685C207.184 9.685 224.071 9.64431 218.365 10.6281C204.838 12.9603 190.632 11.2219 177.08 10.1041C174.12 9.85999 157.326 11.1597 167.44 6.75103C179.257 1.6001 192.541 2.14051 205.162 2.14051C211.122 2.14051 219.022 2.28535 206.42 4.44577C194.496 6.48977 182.372 7.79888 170.269 7.79888C165.756 7.79888 181.208 7.79888 182.11 7.79888C192.309 7.79888 202.508 7.79888 212.707 7.79888C216.374 7.79888 220.042 7.79888 223.709 7.79888C230.171 7.79888 210.786 7.79888 204.324 7.79888C194.498 7.79888 186.344 4.02663 176.766 4.02663C137.184 4.02663 97.4579 2.14051 58.0446 2.14051C46.7338 2.14051 34.8741 4.02663 24.5135 4.02663C21.626 4.02663 13.591 2.62151 11.3107 4.44577C9.47702 5.91271 8.67785 5.91276 6.17624 5.91276C2.19498 5.91276 16.2352 7.53212 18.0169 7.69409C28.2285 8.62242 40.7749 5.26863 50.5001 8.74194C63.5342 13.397 81.7939 13.4572 95.7671 13.4572" stroke="#DBDFE4" stroke-linecap="round"/>
</svg>