<svg xmlns="http://www.w3.org/2000/svg" width="135" height="39" viewBox="0 0 135 39" fill="none">
  <path d="M134.25 33.9385C134.25 35.9828 132.531 37.6388 130.406 37.6388H4.59932C2.47463 37.6388 0.75 35.9828 0.75 33.9385V4.42909C0.75 2.38567 2.47463 0.723877 4.59932 0.723877H130.405C132.531 0.723877 134.249 2.38567 134.249 4.42909L134.25 33.9385Z" fill="white"/>
  <path d="M30.1271 18.974C30.0981 15.883 32.7661 14.3792 32.8881 14.3091C31.3771 12.1963 29.0351 11.9076 28.2121 11.8846C26.2451 11.6861 24.3371 13.0134 23.3351 13.0134C22.3131 13.0134 20.7701 11.9038 19.1071 11.9364C16.9671 11.9681 14.9651 13.1564 13.8671 15.0016C11.6011 18.764 13.2911 24.293 15.4621 27.3342C16.5481 28.8236 17.8171 30.4867 19.4781 30.4282C21.1031 30.3639 21.7101 29.4346 23.6711 29.4346C25.6141 29.4346 26.1841 30.4282 27.8781 30.3908C29.6221 30.3639 30.7201 28.8946 31.7681 27.3918C33.0231 25.6846 33.5271 24.0034 33.5471 23.9171C33.5061 23.9036 30.1601 22.6789 30.1271 18.974Z" fill="black"/>
  <path d="M26.9271 9.88402C27.8011 8.83576 28.3991 7.40963 28.2331 5.9624C26.9681 6.01611 25.3861 6.80158 24.4751 7.82683C23.6691 8.73026 22.9491 10.2111 23.1351 11.6036C24.5561 11.7053 26.0151 10.916 26.9271 9.88402Z" fill="black"/>
  <path d="M49.0498 9.59871C49.0498 10.7275 48.6968 11.5773 47.9918 12.1479C47.3388 12.6744 46.4108 12.9382 45.2088 12.9382C44.6128 12.9382 44.1028 12.9132 43.6758 12.8634V6.69562C44.2328 6.6093 44.8328 6.56519 45.4808 6.56519C46.6258 6.56519 47.4888 6.80399 48.0708 7.28161C48.7228 7.82156 49.0498 8.59361 49.0498 9.59871ZM47.9448 9.62652C47.9448 8.89476 47.7428 8.3337 47.3388 7.9424C46.9348 7.55206 46.3448 7.35641 45.5678 7.35641C45.2378 7.35641 44.9568 7.37751 44.7238 7.42163V12.1105C44.8528 12.1297 45.0888 12.1383 45.4318 12.1383C46.2338 12.1383 46.8528 11.9244 47.2888 11.4967C47.7248 11.069 47.9448 10.4456 47.9448 9.62652Z" fill="black"/>
  <path d="M54.908 10.5845C54.908 11.2798 54.701 11.8495 54.287 12.2964C53.853 12.7558 53.278 12.985 52.56 12.985C51.868 12.985 51.317 12.7654 50.906 12.3242C50.496 11.884 50.291 11.3287 50.291 10.6593C50.291 9.95916 50.502 9.38468 50.926 8.93871C51.35 8.49275 51.92 8.26929 52.638 8.26929C53.33 8.26929 53.886 8.48891 54.307 8.92912C54.707 9.35687 54.908 9.90929 54.908 10.5845ZM53.821 10.6171C53.821 10.1999 53.727 9.84215 53.54 9.54388C53.32 9.18328 53.007 9.00297 52.6 9.00297C52.179 9.00297 51.859 9.18328 51.639 9.54388C51.451 9.84215 51.358 10.2056 51.358 10.6353C51.358 11.0525 51.452 11.4102 51.639 11.7085C51.866 12.0691 52.182 12.2494 52.59 12.2494C52.99 12.2494 53.304 12.0662 53.53 11.6989C53.724 11.3949 53.821 11.0343 53.821 10.6171Z" fill="black"/>
  <path d="M62.7655 8.36157L61.2905 12.8826H60.3305L59.7195 10.9194C59.5645 10.4293 59.4385 9.94211 59.3405 9.45874H59.3215C59.2305 9.95554 59.1045 10.4418 58.9425 10.9194L58.2935 12.8826H57.3225L55.9355 8.36157H57.0125L57.5455 10.5108C57.6745 11.0191 57.7805 11.5035 57.8655 11.9619H57.8845C57.9625 11.584 58.0915 11.1026 58.2735 10.5204L58.9425 8.36253H59.7965L60.4375 10.4744C60.5925 10.9894 60.7185 11.4852 60.8155 11.9629H60.8445C60.9155 11.4977 61.0225 11.0019 61.1645 10.4744L61.7365 8.36253H62.7655V8.36157Z" fill="black"/>
  <path d="M68.1984 12.8823H67.1504V10.2929C67.1504 9.49492 66.8344 9.09595 66.2004 9.09595C65.8894 9.09595 65.6384 9.20528 65.4434 9.42491C65.2504 9.64454 65.1524 9.90348 65.1524 10.1998V12.8814H64.1044V9.65317C64.1044 9.25611 64.0914 8.82549 64.0664 8.35939H64.9874L65.0364 9.06622H65.0654C65.1874 8.84659 65.3694 8.66533 65.6084 8.52051C65.8924 8.35171 66.2104 8.26636 66.5584 8.26636C66.9984 8.26636 67.3644 8.40254 67.6554 8.67588C68.0174 9.01059 68.1984 9.51027 68.1984 10.1739V12.8823Z" fill="black"/>
  <path d="M71.088 12.8826H70.041V6.28711H71.088V12.8826Z" fill="black"/>
  <path d="M77.2576 10.5845C77.2576 11.2798 77.0506 11.8495 76.6366 12.2964C76.2026 12.7558 75.6266 12.985 74.9096 12.985C74.2166 12.985 73.6656 12.7654 73.2556 12.3242C72.8456 11.884 72.6406 11.3287 72.6406 10.6593C72.6406 9.95916 72.8516 9.38468 73.2756 8.93871C73.6996 8.49275 74.2696 8.26929 74.9866 8.26929C75.6796 8.26929 76.2346 8.48891 76.6566 8.92912C77.0566 9.35687 77.2576 9.90929 77.2576 10.5845ZM76.1696 10.6171C76.1696 10.1999 76.0756 9.84215 75.8886 9.54388C75.6696 9.18328 75.3556 9.00297 74.9496 9.00297C74.5276 9.00297 74.2076 9.18328 73.9886 9.54388C73.8006 9.84215 73.7076 10.2056 73.7076 10.6353C73.7076 11.0525 73.8016 11.4102 73.9886 11.7085C74.2156 12.0691 74.5316 12.2494 74.9396 12.2494C75.3396 12.2494 75.6526 12.0662 75.8786 11.6989C76.0736 11.3949 76.1696 11.0343 76.1696 10.6171Z" fill="black"/>
  <path d="M82.329 12.8824H81.388L81.31 12.3616H81.281C80.959 12.7769 80.5 12.985 79.904 12.985C79.459 12.985 79.099 12.8479 78.828 12.5755C78.582 12.3281 78.459 12.0202 78.459 11.6548C78.459 11.1024 78.699 10.6813 79.182 10.3898C79.664 10.0982 80.342 9.95532 81.215 9.96204V9.87764C81.215 9.28206 80.889 8.98475 80.236 8.98475C79.771 8.98475 79.361 9.09696 79.007 9.31946L78.794 8.65963C79.232 8.39972 79.773 8.26929 80.411 8.26929C81.643 8.26929 82.261 8.89268 82.261 10.1395V11.8044C82.261 12.2561 82.284 12.6158 82.329 12.8824ZM81.241 11.3287V10.6315C80.085 10.6123 79.507 10.9163 79.507 11.5426C79.507 11.7785 79.573 11.955 79.708 12.0729C79.843 12.1909 80.015 12.2494 80.22 12.2494C80.45 12.2494 80.665 12.1794 80.861 12.0403C81.058 11.9003 81.179 11.7229 81.224 11.5052C81.235 11.4563 81.241 11.3968 81.241 11.3287Z" fill="black"/>
  <path d="M88.2851 12.8826H87.3551L87.3061 12.1566H87.2771C86.9801 12.709 86.4741 12.9852 85.7631 12.9852C85.1952 12.9852 84.7222 12.7713 84.3472 12.3436C83.9722 11.9159 83.7852 11.3606 83.7852 10.6787C83.7852 9.9469 83.9882 9.3542 84.3962 8.90152C84.7912 8.47953 85.2751 8.26854 85.8511 8.26854C86.4841 8.26854 86.9271 8.47282 87.1791 8.88234H87.1991V6.28711H88.2481V11.6646C88.2481 12.1048 88.2601 12.5105 88.2851 12.8826ZM87.1991 10.976V10.2222C87.1991 10.0917 87.1891 9.98622 87.1701 9.90566C87.1111 9.66398 86.9841 9.46066 86.7911 9.29666C86.5961 9.13266 86.3611 9.05018 86.0901 9.05018C85.6991 9.05018 85.3931 9.19883 85.1681 9.4971C84.9451 9.79537 84.8322 10.1761 84.8322 10.6413C84.8322 11.0882 84.9391 11.4507 85.1541 11.7298C85.3811 12.0271 85.6871 12.1758 86.0701 12.1758C86.4141 12.1758 86.6892 12.0521 86.8981 11.8037C87.1001 11.5744 87.1991 11.2982 87.1991 10.976Z" fill="black"/>
  <path d="M97.2479 10.5845C97.2479 11.2798 97.0409 11.8495 96.6269 12.2964C96.1929 12.7558 95.6189 12.985 94.8999 12.985C94.2089 12.985 93.6579 12.7654 93.2459 12.3242C92.8359 11.884 92.6309 11.3287 92.6309 10.6593C92.6309 9.95916 92.8419 9.38468 93.2659 8.93871C93.6899 8.49275 94.2599 8.26929 94.9789 8.26929C95.6699 8.26929 96.2269 8.48891 96.6469 8.92912C97.0469 9.35687 97.2479 9.90929 97.2479 10.5845ZM96.1619 10.6171C96.1619 10.1999 96.0679 9.84215 95.8809 9.54388C95.6599 9.18328 95.3479 9.00297 94.9399 9.00297C94.5199 9.00297 94.1999 9.18328 93.9789 9.54388C93.7909 9.84215 93.6979 10.2056 93.6979 10.6353C93.6979 11.0525 93.7919 11.4102 93.9789 11.7085C94.2059 12.0691 94.5219 12.2494 94.9299 12.2494C95.3299 12.2494 95.6449 12.0662 95.8709 11.6989C96.0639 11.3949 96.1619 11.0343 96.1619 10.6171Z" fill="black"/>
  <path d="M102.883 12.8823H101.836V10.2929C101.836 9.49492 101.52 9.09595 100.885 9.09595C100.574 9.09595 100.323 9.20528 100.129 9.42491C99.9349 9.64454 99.8379 9.90348 99.8379 10.1998V12.8814H98.789V9.65317C98.789 9.25611 98.777 8.82549 98.752 8.35939H99.6719L99.721 9.06622H99.75C99.873 8.84659 100.055 8.66533 100.293 8.52051C100.578 8.35171 100.895 8.26636 101.244 8.26636C101.683 8.26636 102.049 8.40254 102.34 8.67588C102.703 9.01059 102.883 9.51027 102.883 10.1739V12.8823Z" fill="black"/>
  <path d="M109.935 9.1144H108.781V11.3107C108.781 11.8688 108.986 12.1479 109.392 12.1479C109.58 12.1479 109.736 12.1326 109.859 12.1009L109.886 12.8634C109.679 12.9382 109.407 12.9756 109.072 12.9756C108.658 12.9756 108.336 12.8548 108.103 12.6131C107.869 12.3714 107.753 11.9647 107.753 11.3941V9.1144H107.064V8.36154H107.753V7.53291L108.78 7.2356V8.36058H109.934V9.1144H109.935Z" fill="black"/>
  <path d="M115.485 12.8826H114.436V10.3123C114.436 9.5019 114.12 9.09621 113.487 9.09621C113.001 9.09621 112.669 9.33118 112.487 9.80113C112.456 9.89991 112.438 10.0208 112.438 10.1627V12.8816H111.391V6.28711H112.438V9.01181H112.458C112.788 8.51598 113.261 8.26854 113.874 8.26854C114.308 8.26854 114.667 8.40473 114.952 8.67806C115.307 9.01853 115.485 9.52491 115.485 10.1943V12.8826Z" fill="black"/>
  <path d="M121.207 10.4081C121.207 10.5884 121.193 10.7399 121.168 10.8636H118.025C118.039 11.3106 118.189 11.651 118.48 11.887C118.746 12.098 119.089 12.2035 119.509 12.2035C119.974 12.2035 120.398 12.1325 120.78 11.9896L120.944 12.6878C120.497 12.8738 119.971 12.9669 119.362 12.9669C118.632 12.9669 118.057 12.7607 117.641 12.3483C117.223 11.9359 117.016 11.3825 117.016 10.6881C117.016 10.0062 117.209 9.43847 117.598 8.9858C118.004 8.50243 118.553 8.26074 119.246 8.26074C119.924 8.26074 120.439 8.50243 120.787 8.9858C121.068 9.36942 121.207 9.84416 121.207 10.4081ZM120.207 10.1482C120.215 9.84991 120.146 9.59288 120.004 9.37614C119.822 9.09705 119.545 8.95702 119.17 8.95702C118.828 8.95702 118.549 9.09321 118.336 9.36654C118.162 9.58425 118.059 9.84416 118.025 10.1482H120.207Z" fill="black"/>
  <path d="M53.6452 30.2149H51.3742L50.1302 26.4659H45.8062L44.6212 30.2149H42.4102L46.6942 17.4517H49.3402L53.6452 30.2149ZM49.7552 24.893L48.6302 21.5603C48.5112 21.2198 48.2882 20.4181 47.9592 19.1559H47.9192C47.7882 19.6988 47.5772 20.5005 47.2872 21.5603L46.1822 24.893H49.7552Z" fill="black"/>
  <path d="M64.6629 25.5004C64.6629 27.0656 64.2219 28.3027 63.3399 29.211C62.5499 30.0195 61.5689 30.4232 60.3979 30.4232C59.1339 30.4232 58.2259 29.9878 57.6729 29.117H57.6329V33.9651H55.5009V24.0416C55.5009 23.0576 55.4739 22.0477 55.4219 21.0119H57.2969L57.4159 22.4707H57.4559C58.1669 21.3716 59.2459 20.823 60.6939 20.823C61.8259 20.823 62.7709 21.2517 63.5269 22.1101C64.2849 22.9694 64.6629 24.0992 64.6629 25.5004ZM62.4909 25.5752C62.4909 24.6794 62.2809 23.9409 61.8589 23.3597C61.3979 22.7536 60.7789 22.4505 60.0029 22.4505C59.4769 22.4505 58.9989 22.6193 58.5719 22.9521C58.1439 23.2878 57.8639 23.7261 57.7329 24.2689C57.6669 24.5221 57.6339 24.7293 57.6339 24.8923V26.4268C57.6339 27.0962 57.8479 27.6611 58.2759 28.1224C58.7039 28.5838 59.2599 28.8139 59.9439 28.8139C60.7469 28.8139 61.3719 28.5166 61.8189 27.9239C62.2669 27.3303 62.4909 26.5477 62.4909 25.5752Z" fill="black"/>
  <path d="M75.699 25.5004C75.699 27.0656 75.258 28.3027 74.375 29.211C73.586 30.0195 72.605 30.4232 71.434 30.4232C70.17 30.4232 69.262 29.9878 68.71 29.117H68.67V33.9651H66.538V24.0416C66.538 23.0576 66.511 22.0477 66.459 21.0119H68.334L68.453 22.4707H68.493C69.203 21.3716 70.282 20.823 71.731 20.823C72.862 20.823 73.807 21.2517 74.565 22.1101C75.32 22.9694 75.699 24.0992 75.699 25.5004ZM73.527 25.5752C73.527 24.6794 73.316 23.9409 72.894 23.3597C72.433 22.7536 71.816 22.4505 71.039 22.4505C70.512 22.4505 70.035 22.6193 69.607 22.9521C69.179 23.2878 68.9 23.7261 68.769 24.2689C68.704 24.5221 68.67 24.7293 68.67 24.8923V26.4268C68.67 27.0962 68.884 27.6611 69.31 28.1224C69.738 28.5828 70.294 28.8139 70.98 28.8139C71.783 28.8139 72.408 28.5166 72.855 27.9239C73.303 27.3303 73.527 26.5477 73.527 25.5752Z" fill="black"/>
  <path d="M88.0392 26.6359C88.0392 27.7216 87.6462 28.6049 86.8572 29.2868C85.9902 30.032 84.7832 30.4041 83.2322 30.4041C81.8002 30.4041 80.6522 30.1394 79.7832 29.609L80.2772 27.9048C81.2132 28.4476 82.2402 28.72 83.3592 28.72C84.1622 28.72 84.7872 28.5454 85.2362 28.1982C85.6832 27.8511 85.9062 27.385 85.9062 26.8038C85.9062 26.2859 85.7222 25.8495 85.3532 25.4956C84.9862 25.1417 84.3732 24.8127 83.5172 24.5087C81.1872 23.6753 80.0232 22.4544 80.0232 20.8489C80.0232 19.7997 80.4312 18.9394 81.2482 18.27C82.0622 17.5996 83.1482 17.2649 84.5062 17.2649C85.7172 17.2649 86.7232 17.4673 87.5262 17.871L86.9932 19.5379C86.2432 19.1466 85.3952 18.9509 84.4462 18.9509C83.6962 18.9509 83.1102 19.1284 82.6902 19.4813C82.3352 19.7968 82.1572 20.1814 82.1572 20.637C82.1572 21.1414 82.3602 21.5586 82.7682 21.8866C83.1232 22.1897 83.7682 22.5177 84.7042 22.8716C85.8492 23.3137 86.6902 23.8307 87.2312 24.4234C87.7702 25.0141 88.0392 25.7536 88.0392 26.6359Z" fill="black"/>
  <path d="M95.0881 22.5464H92.7381V27.0147C92.7381 28.1512 93.1521 28.7189 93.9821 28.7189C94.3631 28.7189 94.6791 28.6873 94.9291 28.624L94.9881 30.1767C94.5681 30.3273 94.0151 30.403 93.3301 30.403C92.4881 30.403 91.8301 30.1566 91.3551 29.6646C90.8821 29.1716 90.6441 28.3449 90.6441 27.1835V22.5445H89.2441V21.01H90.6441V19.3249L92.7381 18.7188V21.01H95.0881V22.5464Z" fill="black"/>
  <path d="M105.692 25.5378C105.692 26.9524 105.27 28.1138 104.428 29.0221C103.545 29.9572 102.373 30.4233 100.912 30.4233C99.504 30.4233 98.383 29.9754 97.547 29.0796C96.711 28.1838 96.293 27.0531 96.293 25.6903C96.293 24.2641 96.723 23.096 97.586 22.1878C98.447 21.2786 99.609 20.824 101.07 20.824C102.478 20.824 103.611 21.2719 104.466 22.1686C105.284 23.0385 105.692 24.1615 105.692 25.5378ZM103.48 25.604C103.48 24.7552 103.291 24.0273 102.908 23.4202C102.461 22.6855 101.822 22.3192 100.994 22.3192C100.137 22.3192 99.486 22.6865 99.039 23.4202C98.656 24.0282 98.467 24.7677 98.467 25.6423C98.467 26.4911 98.656 27.219 99.039 27.8252C99.5 28.5598 100.144 28.9262 100.975 28.9262C101.789 28.9262 102.428 28.5521 102.889 27.806C103.282 27.1874 103.48 26.4518 103.48 25.604Z" fill="black"/>
  <path d="M112.62 22.8102C112.409 22.7728 112.184 22.7536 111.948 22.7536C111.198 22.7536 110.618 23.025 110.21 23.5688C109.855 24.0483 109.677 24.6545 109.677 25.3862V30.2151H107.546L107.566 23.9102C107.566 22.8495 107.539 21.8837 107.486 21.0129H109.343L109.421 22.7737H109.48C109.705 22.1686 110.06 21.6814 110.546 21.316C111.021 20.987 111.534 20.823 112.087 20.823C112.284 20.823 112.462 20.8364 112.62 20.8604V22.8102Z" fill="black"/>
  <path d="M122.157 25.178C122.157 25.5444 122.132 25.8532 122.079 26.1055H115.683C115.708 27.0147 116.017 27.71 116.611 28.1895C117.15 28.6182 117.847 28.833 118.703 28.833C119.65 28.833 120.514 28.6882 121.291 28.3976L121.625 29.817C120.717 30.1968 119.645 30.3858 118.408 30.3858C116.92 30.3858 115.752 29.9657 114.902 29.1265C114.054 28.2873 113.629 27.1604 113.629 25.7468C113.629 24.359 114.024 23.2033 114.815 22.2817C115.643 21.2977 116.762 20.8057 118.17 20.8057C119.553 20.8057 120.6 21.2977 121.311 22.2817C121.874 23.0633 122.157 24.03 122.157 25.178ZM120.124 24.6477C120.138 24.0415 119.999 23.5179 119.71 23.0758C119.341 22.507 118.774 22.2232 118.011 22.2232C117.314 22.2232 116.747 22.5003 116.314 23.0566C115.959 23.4987 115.748 24.0291 115.683 24.6467H120.124V24.6477Z" fill="black"/>
</svg>