<svg width="43" height="44" viewBox="0 0 43 44" fill="none" xmlns="http://www.w3.org/2000/svg">
<rect width="43" height="44" rx="7" fill="#F9FBFC"/>
<path d="M15.0611 30.0451L15.5019 29.4383L15.0611 30.0451ZM13.9549 28.9389L14.5617 28.4981L13.9549 28.9389ZM30.0451 28.9389L29.4383 28.4981L30.0451 28.9389ZM28.9389 30.0451L28.4981 29.4383L28.9389 30.0451ZM28.9389 13.9549L28.4981 14.5617L28.9389 13.9549ZM30.0451 15.0611L29.4383 15.5019L30.0451 15.0611ZM15.0611 13.9549L15.5019 14.5617L15.0611 13.9549ZM13.9549 15.0611L14.5617 15.5019L13.9549 15.0611ZM26.3292 23.6646C26.1439 24.0351 26.2941 24.4856 26.6646 24.6708C27.0351 24.8561 27.4856 24.7059 27.6708 24.3354L26.3292 23.6646ZM23.3292 23.6646C23.1439 24.0351 23.2941 24.4856 23.6646 24.6708C24.0351 24.8561 24.4856 24.7059 24.6708 24.3354L23.3292 23.6646ZM24.0528 23.8944L23.382 23.559L23.382 23.559L24.0528 23.8944ZM24.0528 22.1056L24.7236 21.7702L24.0528 22.1056ZM24.6708 21.6646C24.4856 21.2941 24.0351 21.1439 23.6646 21.3292C23.2941 21.5144 23.1439 21.9649 23.3292 22.3354L24.6708 21.6646ZM27.0528 22.1056L27.7236 21.7702L27.0528 22.1056ZM22 30.25C20.1084 30.25 18.75 30.249 17.698 30.135C16.6601 30.0225 16.0099 29.8074 15.5019 29.4383L14.6202 30.6518C15.4266 31.2377 16.3709 31.5 17.5365 31.6263C18.688 31.751 20.1418 31.75 22 31.75V30.25ZM12.25 22C12.25 23.8582 12.249 25.312 12.3737 26.4635C12.5 27.6291 12.7623 28.5734 13.3482 29.3798L14.5617 28.4981C14.1926 27.9901 13.9775 27.3399 13.865 26.302C13.751 25.25 13.75 23.8916 13.75 22H12.25ZM15.5019 29.4383C15.1411 29.1762 14.8238 28.8589 14.5617 28.4981L13.3482 29.3798C13.7028 29.8679 14.1321 30.2972 14.6202 30.6518L15.5019 29.4383ZM30.25 22C30.25 23.8916 30.249 25.25 30.135 26.302C30.0225 27.3399 29.8074 27.9901 29.4383 28.4981L30.6518 29.3798C31.2377 28.5734 31.5 27.6291 31.6263 26.4635C31.751 25.312 31.75 23.8582 31.75 22H30.25ZM22 31.75C23.8582 31.75 25.312 31.751 26.4635 31.6263C27.6291 31.5 28.5734 31.2377 29.3798 30.6518L28.4981 29.4383C27.9901 29.8074 27.3399 30.0225 26.302 30.135C25.25 30.249 23.8916 30.25 22 30.25V31.75ZM29.4383 28.4981C29.1762 28.8589 28.8589 29.1762 28.4981 29.4383L29.3798 30.6518C29.8679 30.2972 30.2972 29.8679 30.6518 29.3798L29.4383 28.4981ZM22 13.75C23.8916 13.75 25.25 13.751 26.302 13.865C27.3399 13.9775 27.9901 14.1926 28.4981 14.5617L29.3798 13.3482C28.5734 12.7623 27.6291 12.5 26.4635 12.3737C25.312 12.249 23.8582 12.25 22 12.25V13.75ZM31.75 22C31.75 20.1418 31.751 18.688 31.6263 17.5365C31.5 16.3709 31.2377 15.4266 30.6518 14.6202L29.4383 15.5019C29.8074 16.0099 30.0225 16.6601 30.135 17.698C30.249 18.75 30.25 20.1084 30.25 22H31.75ZM28.4981 14.5617C28.8589 14.8238 29.1762 15.1411 29.4383 15.5019L30.6518 14.6202C30.2972 14.1321 29.8679 13.7028 29.3798 13.3482L28.4981 14.5617ZM22 12.25C20.1418 12.25 18.688 12.249 17.5365 12.3737C16.3709 12.5 15.4266 12.7623 14.6202 13.3482L15.5019 14.5617C16.0099 14.1926 16.6601 13.9775 17.698 13.865C18.75 13.751 20.1084 13.75 22 13.75V12.25ZM13.75 22C13.75 20.1084 13.751 18.75 13.865 17.698C13.9775 16.6601 14.1926 16.0099 14.5617 15.5019L13.3482 14.6202C12.7623 15.4266 12.5 16.3709 12.3737 17.5365C12.249 18.688 12.25 20.1418 12.25 22H13.75ZM14.6202 13.3482C14.1321 13.7028 13.7028 14.1321 13.3482 14.6202L14.5617 15.5019C14.8238 15.1411 15.1411 14.8238 15.5019 14.5617L14.6202 13.3482ZM20.25 22C20.25 22.6904 19.6904 23.25 19 23.25V24.75C20.5188 24.75 21.75 23.5188 21.75 22H20.25ZM19 23.25C18.3096 23.25 17.75 22.6904 17.75 22H16.25C16.25 23.5188 17.4812 24.75 19 24.75V23.25ZM17.75 22C17.75 21.3096 18.3096 20.75 19 20.75V19.25C17.4812 19.25 16.25 20.4812 16.25 22H17.75ZM19 20.75C19.6904 20.75 20.25 21.3096 20.25 22H21.75C21.75 20.4812 20.5188 19.25 19 19.25V20.75ZM21 22.75H26.882V21.25H21V22.75ZM27.6708 24.3354L27.7236 24.2298L26.382 23.559L26.3292 23.6646L27.6708 24.3354ZM27.7236 24.2298C28.1107 23.4556 28.1107 22.5444 27.7236 21.7702L26.382 22.441C26.5579 22.7929 26.5579 23.2071 26.382 23.559L27.7236 24.2298ZM24.6708 24.3354L24.7236 24.2298L23.382 23.559L23.3292 23.6646L24.6708 24.3354ZM24.7236 21.7702L24.6708 21.6646L23.3292 22.3354L23.382 22.441L24.7236 21.7702ZM24.7236 24.2298C25.1107 23.4556 25.1107 22.5444 24.7236 21.7702L23.382 22.441C23.5579 22.7929 23.5579 23.2071 23.382 23.559L24.7236 24.2298ZM26.882 22.75C26.6702 22.75 26.4767 22.6304 26.382 22.441L27.7236 21.7702C27.5642 21.4514 27.2384 21.25 26.882 21.25V22.75Z" fill="#2D264B"/>
</svg>
