<svg xmlns="http://www.w3.org/2000/svg" width="25" height="25" viewBox="0 0 25 25" fill="none">
  <g clip-path="url(#clip0_1_1228)">
    <path d="M13.0586 9.5C12.2629 9.5 11.4999 9.81607 10.9373 10.3787C10.3747 10.9413 10.0586 11.7044 10.0586 12.5C10.0586 13.2956 10.3747 14.0587 10.9373 14.6213C11.4999 15.1839 12.2629 15.5 13.0586 15.5C13.8542 15.5 14.6173 15.1839 15.1799 14.6213C15.7425 14.0587 16.0586 13.2956 16.0586 12.5C16.0586 11.7044 15.7425 10.9413 15.1799 10.3787C14.6173 9.81607 13.8542 9.5 13.0586 9.5ZM13.0586 7.5C14.3847 7.5 15.6564 8.02678 16.5941 8.96447C17.5318 9.90215 18.0586 11.1739 18.0586 12.5C18.0586 13.8261 17.5318 15.0979 16.5941 16.0355C15.6564 16.9732 14.3847 17.5 13.0586 17.5C11.7325 17.5 10.4607 16.9732 9.52306 16.0355C8.58538 15.0979 8.05859 13.8261 8.05859 12.5C8.05859 11.1739 8.58538 9.90215 9.52306 8.96447C10.4607 8.02678 11.7325 7.5 13.0586 7.5ZM19.5586 7.25C19.5586 7.58152 19.4269 7.89946 19.1925 8.13388C18.9581 8.3683 18.6401 8.5 18.3086 8.5C17.9771 8.5 17.6591 8.3683 17.4247 8.13388C17.1903 7.89946 17.0586 7.58152 17.0586 7.25C17.0586 6.91848 17.1903 6.60054 17.4247 6.36612C17.6591 6.1317 17.9771 6 18.3086 6C18.6401 6 18.9581 6.1317 19.1925 6.36612C19.4269 6.60054 19.5586 6.91848 19.5586 7.25ZM13.0586 4.5C10.5846 4.5 10.1806 4.507 9.02959 4.558C8.24559 4.595 7.71959 4.7 7.23159 4.89C6.79759 5.058 6.48459 5.259 6.15159 5.593C5.8386 5.8954 5.59795 6.26458 5.44759 6.673C5.25759 7.163 5.15259 7.688 5.11659 8.471C5.06459 9.575 5.05859 9.961 5.05859 12.5C5.05859 14.974 5.06559 15.378 5.11659 16.529C5.15359 17.312 5.25859 17.839 5.44759 18.326C5.61759 18.761 5.81759 19.074 6.14959 19.406C6.48659 19.742 6.79959 19.943 7.22959 20.109C7.72359 20.3 8.24959 20.406 9.02959 20.442C10.1336 20.494 10.5196 20.5 13.0586 20.5C15.5326 20.5 15.9366 20.493 17.0876 20.442C17.8696 20.405 18.3966 20.3 18.8846 20.111C19.3176 19.942 19.6326 19.741 19.9646 19.409C20.3016 19.072 20.5026 18.759 20.6686 18.329C20.8586 17.836 20.9646 17.309 21.0006 16.529C21.0526 15.425 21.0586 15.039 21.0586 12.5C21.0586 10.026 21.0516 9.622 21.0006 8.471C20.9636 7.689 20.8586 7.161 20.6686 6.673C20.5179 6.265 20.2777 5.89596 19.9656 5.593C19.6633 5.27985 19.2941 5.03917 18.8856 4.889C18.3956 4.699 17.8696 4.594 17.0876 4.558C15.9836 4.506 15.5976 4.5 13.0586 4.5ZM13.0586 2.5C15.7756 2.5 16.1146 2.51 17.1806 2.56C18.2456 2.61 18.9706 2.777 19.6086 3.025C20.2686 3.279 20.8246 3.623 21.3806 4.178C21.8891 4.6779 22.2825 5.28259 22.5336 5.95C22.7806 6.587 22.9486 7.313 22.9986 8.378C23.0456 9.444 23.0586 9.783 23.0586 12.5C23.0586 15.217 23.0486 15.556 22.9986 16.622C22.9486 17.687 22.7806 18.412 22.5336 19.05C22.2833 19.7178 21.8897 20.3226 21.3806 20.822C20.8806 21.3303 20.2759 21.7238 19.6086 21.975C18.9716 22.222 18.2456 22.39 17.1806 22.44C16.1146 22.487 15.7756 22.5 13.0586 22.5C10.3416 22.5 10.0026 22.49 8.93659 22.44C7.87159 22.39 7.14659 22.222 6.50859 21.975C5.84092 21.7245 5.23612 21.3309 4.73659 20.822C4.228 20.3222 3.83453 19.7175 3.58359 19.05C3.33559 18.413 3.16859 17.687 3.11859 16.622C3.07159 15.556 3.05859 15.217 3.05859 12.5C3.05859 9.783 3.06859 9.444 3.11859 8.378C3.16859 7.312 3.33559 6.588 3.58359 5.95C3.83383 5.28218 4.2274 4.67732 4.73659 4.178C5.23626 3.66923 5.84102 3.27573 6.50859 3.025C7.14659 2.777 7.87059 2.61 8.93659 2.56C10.0026 2.513 10.3416 2.5 13.0586 2.5Z" fill="black"/>
  </g>
  <defs>
    <clipPath id="clip0_1_1228">
      <rect width="24" height="24" fill="white" transform="translate(0.0585938 0.5)"/>
    </clipPath>
  </defs>
</svg>