<svg width="43" height="44" viewBox="0 0 43 44" fill="none" xmlns="http://www.w3.org/2000/svg">
<rect width="43" height="44" rx="7" fill="#F9FBFC"/>
<path d="M13 20C13 18.6193 14.1193 17.5 15.5 17.5C16.8807 17.5 18 18.6193 18 20V28C18 29.3807 16.8807 30.5 15.5 30.5C14.1193 30.5 13 29.3807 13 28V20Z" stroke="#2D264B" stroke-width="1.5"/>
<path d="M21.5754 14.69L19.3449 18.3146C18.746 19.2877 18.4466 19.7743 18.2655 20.3075C18.2103 20.4702 18.1635 20.6356 18.1253 20.8031C18 21.3521 18 21.9234 18 23.0661V26.5C18 28.7091 19.7909 30.5 22 30.5H24.9098C26.8037 30.5 28.535 29.43 29.382 27.7361L30.5305 25.439C31.6651 23.1699 30.015 20.5 27.478 20.5H26.7882C25.0593 20.5 23.7371 18.9589 24 17.25L24.243 15.6702C24.3782 14.792 23.6987 14 22.8101 14C22.3067 14 21.8393 14.2612 21.5754 14.69Z" stroke="#2D264B" stroke-width="1.5"/>
</svg>
