<svg width="43" height="44" viewBox="0 0 43 44" fill="none" xmlns="http://www.w3.org/2000/svg">
<rect width="43" height="44" rx="7" fill="#F9FBFC"/>
<path d="M16.4549 31.7553L16.6867 31.042L16.4549 31.7553ZM13.2447 28.5451L13.958 28.3133L13.2447 28.5451ZM30.7553 28.5451L30.042 28.3133L30.7553 28.5451ZM27.5451 31.7553L27.3133 31.042L27.5451 31.7553ZM27.5451 18.2447L27.3133 18.958L27.5451 18.2447ZM30.7553 21.4549L30.042 21.6867L30.7553 21.4549ZM16.4549 18.2447L16.6867 18.958L16.4549 18.2447ZM13.2447 21.4549L13.958 21.6867L13.2447 21.4549ZM20 18.75H24V17.25H20V18.75ZM24 31.25H20V32.75H24V31.25ZM20 31.25C18.0803 31.25 17.2984 31.2407 16.6867 31.042L16.2232 32.4686C17.1178 32.7593 18.1971 32.75 20 32.75V31.25ZM12.25 25C12.25 26.8029 12.2407 27.8822 12.5314 28.7768L13.958 28.3133C13.7593 27.7016 13.75 26.9197 13.75 25H12.25ZM16.6867 31.042C15.3928 30.6216 14.3784 29.6072 13.958 28.3133L12.5314 28.7768C13.1002 30.5274 14.4726 31.8998 16.2232 32.4686L16.6867 31.042ZM30.25 25C30.25 26.9197 30.2407 27.7016 30.042 28.3133L31.4686 28.7768C31.7593 27.8822 31.75 26.8029 31.75 25H30.25ZM24 32.75C25.8029 32.75 26.8822 32.7593 27.7768 32.4686L27.3133 31.042C26.7016 31.2407 25.9197 31.25 24 31.25V32.75ZM30.042 28.3133C29.6216 29.6072 28.6072 30.6216 27.3133 31.042L27.7768 32.4686C29.5274 31.8998 30.8998 30.5274 31.4686 28.7768L30.042 28.3133ZM31.75 25C31.75 23.1971 31.7593 22.1178 31.4686 21.2232L30.042 21.6867C30.2407 22.2984 30.25 23.0803 30.25 25H31.75ZM27.3133 18.958C28.6072 19.3784 29.6216 20.3928 30.042 21.6867L31.4686 21.2232C30.8998 19.4726 29.5274 18.1002 27.7768 17.5314L27.3133 18.958ZM13.75 25C13.75 23.0803 13.7593 22.2984 13.958 21.6867L12.5314 21.2232C12.2407 22.1178 12.25 23.1971 12.25 25H13.75ZM16.2232 17.5314C14.4726 18.1002 13.1002 19.4726 12.5314 21.2232L13.958 21.6867C14.3784 20.3928 15.3928 19.3784 16.6867 18.958L16.2232 17.5314ZM26.25 17V18H27.75V17H26.25ZM17.75 18V17H16.25V18H17.75ZM22 12.75C24.3472 12.75 26.25 14.6528 26.25 17H27.75C27.75 13.8244 25.1756 11.25 22 11.25V12.75ZM22 11.25C18.8244 11.25 16.25 13.8244 16.25 17H17.75C17.75 14.6528 19.6528 12.75 22 12.75V11.25ZM19.25 25C19.25 26.5188 20.4812 27.75 22 27.75V26.25C21.3096 26.25 20.75 25.6904 20.75 25H19.25ZM22 27.75C23.5188 27.75 24.75 26.5188 24.75 25H23.25C23.25 25.6904 22.6904 26.25 22 26.25V27.75ZM24.75 25C24.75 23.4812 23.5188 22.25 22 22.25V23.75C22.6904 23.75 23.25 24.3096 23.25 25H24.75ZM22 22.25C20.4812 22.25 19.25 23.4812 19.25 25H20.75C20.75 24.3096 21.3096 23.75 22 23.75V22.25ZM20 17.25C18.5885 17.25 17.6278 17.2474 16.8754 17.3741L17.1246 18.8533C17.7222 18.7526 18.5281 18.75 20 18.75V17.25ZM16.8754 17.3741C16.6477 17.4125 16.4326 17.4634 16.2232 17.5314L16.6867 18.958C16.8169 18.9157 16.9593 18.8811 17.1246 18.8533L16.8754 17.3741ZM16.25 18V18.1137H17.75V18H16.25ZM24 18.75C25.4719 18.75 26.2778 18.7526 26.8754 18.8533L27.1246 17.3741C26.3722 17.2474 25.4115 17.25 24 17.25V18.75ZM26.8754 18.8533C27.0407 18.8811 27.1831 18.9157 27.3133 18.958L27.7768 17.5314C27.5674 17.4634 27.3523 17.4125 27.1246 17.3741L26.8754 18.8533ZM26.25 18V18.1137H27.75V18H26.25Z" fill="#2D264B"/>
</svg>
