<svg width="121" height="28" viewBox="0 0 121 28" fill="none" xmlns="http://www.w3.org/2000/svg">
<path d="M31.9429 10.9094L32.0194 14.1994C32.0782 16.7268 29.9692 18.7673 27.4451 18.6252L17.8071 18.3262L24.875 14.6178L31.9429 10.9094Z" fill="black"/>
<path d="M31.232 4.77075L31.3085 8.0608C31.3672 10.5882 29.2583 12.6287 26.7342 12.4866L17.0961 12.1876L24.1641 8.47916L31.232 4.77075Z" fill="black"/>
<path d="M6.18734 8.46602C13.0398 12.3802 13.0854 22.2447 6.26932 26.222C5.2956 26.7902 4.07194 26.0912 4.06674 24.9638L3.98476 7.20788L6.18734 8.46602Z" fill="black"/>
<path d="M15.6558 25.553C8.76427 21.7079 8.61941 11.8445 15.3951 7.79873C16.363 7.22077 17.5937 7.90738 17.6102 9.03463L17.722 16.6436L17.871 26.7889L15.6558 25.553Z" fill="black"/>
<path d="M51.273 21.5C50.3797 19.9133 49.413 18.3467 48.373 16.8C47.333 15.2533 46.2264 13.7933 45.053 12.42V21.5H41.973V7.64H44.513C44.953 8.08 45.4397 8.62 45.973 9.26C46.5064 9.9 47.0464 10.5867 47.593 11.32C48.153 12.04 48.7064 12.7933 49.253 13.58C49.7997 14.3533 50.313 15.1 50.793 15.82V7.64H53.893V21.5H51.273ZM56.3902 16.32C56.3902 15.3867 56.5302 14.5733 56.8102 13.88C57.1036 13.1733 57.4836 12.5867 57.9502 12.12C58.4169 11.6533 58.9502 11.3 59.5502 11.06C60.1636 10.82 60.7902 10.7 61.4302 10.7C62.9236 10.7 64.1036 11.16 64.9702 12.08C65.8369 12.9867 66.2702 14.3267 66.2702 16.1C66.2702 16.2733 66.2636 16.4667 66.2502 16.68C66.2369 16.88 66.2236 17.06 66.2102 17.22H59.4502C59.5169 17.8333 59.8036 18.32 60.3102 18.68C60.8169 19.04 61.4969 19.22 62.3502 19.22C62.8969 19.22 63.4302 19.1733 63.9502 19.08C64.4836 18.9733 64.9169 18.8467 65.2502 18.7L65.6502 21.12C65.4902 21.2 65.2769 21.28 65.0102 21.36C64.7436 21.44 64.4436 21.5067 64.1102 21.56C63.7902 21.6267 63.4436 21.68 63.0702 21.72C62.6969 21.76 62.3236 21.78 61.9502 21.78C61.0036 21.78 60.1769 21.64 59.4702 21.36C58.7769 21.08 58.1969 20.7 57.7302 20.22C57.2769 19.7267 56.9369 19.1467 56.7102 18.48C56.4969 17.8133 56.3902 17.0933 56.3902 16.32ZM63.3902 15.18C63.3769 14.9267 63.3302 14.68 63.2502 14.44C63.1836 14.2 63.0702 13.9867 62.9102 13.8C62.7636 13.6133 62.5702 13.46 62.3302 13.34C62.1036 13.22 61.8169 13.16 61.4702 13.16C61.1369 13.16 60.8502 13.22 60.6102 13.34C60.3702 13.4467 60.1702 13.5933 60.0102 13.78C59.8502 13.9667 59.7236 14.1867 59.6302 14.44C59.5502 14.68 59.4902 14.9267 59.4502 15.18H63.3902ZM77.5499 21.14C77.0433 21.2867 76.3899 21.42 75.5899 21.54C74.7899 21.6733 73.9499 21.74 73.0699 21.74C72.1766 21.74 71.4299 21.62 70.8299 21.38C70.2433 21.14 69.7766 20.8067 69.4299 20.38C69.0833 19.94 68.8366 19.42 68.6899 18.82C68.5433 18.22 68.4699 17.56 68.4699 16.84V10.98H71.4499V16.48C71.4499 17.44 71.5766 18.1333 71.8299 18.56C72.0833 18.9867 72.5566 19.2 73.2499 19.2C73.4633 19.2 73.6899 19.1933 73.9299 19.18C74.1699 19.1533 74.3833 19.1267 74.5699 19.1V10.98H77.5499V21.14ZM80.2473 8.36L83.2273 7.88V10.98H86.8073V13.46H83.2273V17.16C83.2273 17.7867 83.3339 18.2867 83.5473 18.66C83.7739 19.0333 84.2206 19.22 84.8873 19.22C85.2073 19.22 85.5339 19.1933 85.8673 19.14C86.2139 19.0733 86.5273 18.9867 86.8073 18.88L87.2273 21.2C86.8673 21.3467 86.4673 21.4733 86.0273 21.58C85.5873 21.6867 85.0473 21.74 84.4073 21.74C83.5939 21.74 82.9206 21.6333 82.3873 21.42C81.8539 21.1933 81.4273 20.8867 81.1073 20.5C80.7873 20.1 80.5606 19.62 80.4273 19.06C80.3073 18.5 80.2473 17.88 80.2473 17.2V8.36ZM95.574 13.62C95.3073 13.5533 94.994 13.4867 94.634 13.42C94.274 13.34 93.8873 13.3 93.474 13.3C93.2873 13.3 93.0607 13.32 92.794 13.36C92.5407 13.3867 92.3473 13.42 92.214 13.46V21.5H89.234V11.54C89.7673 11.3533 90.394 11.18 91.114 11.02C91.8473 10.8467 92.6607 10.76 93.554 10.76C93.714 10.76 93.9073 10.7733 94.134 10.8C94.3607 10.8133 94.5873 10.84 94.814 10.88C95.0407 10.9067 95.2673 10.9467 95.494 11C95.7207 11.04 95.914 11.0933 96.074 11.16L95.574 13.62ZM107.316 16.22C107.316 17.0467 107.196 17.8067 106.956 18.5C106.716 19.18 106.37 19.7667 105.916 20.26C105.463 20.74 104.916 21.1133 104.276 21.38C103.65 21.6467 102.943 21.78 102.156 21.78C101.383 21.78 100.676 21.6467 100.036 21.38C99.4095 21.1133 98.8695 20.74 98.4162 20.26C97.9628 19.7667 97.6095 19.18 97.3562 18.5C97.1028 17.8067 96.9762 17.0467 96.9762 16.22C96.9762 15.3933 97.1028 14.64 97.3562 13.96C97.6228 13.28 97.9828 12.7 98.4362 12.22C98.9028 11.74 99.4495 11.3667 100.076 11.1C100.716 10.8333 101.41 10.7 102.156 10.7C102.916 10.7 103.61 10.8333 104.236 11.1C104.876 11.3667 105.423 11.74 105.876 12.22C106.33 12.7 106.683 13.28 106.936 13.96C107.19 14.64 107.316 15.3933 107.316 16.22ZM104.276 16.22C104.276 15.3 104.09 14.58 103.716 14.06C103.356 13.5267 102.836 13.26 102.156 13.26C101.476 13.26 100.95 13.5267 100.576 14.06C100.203 14.58 100.016 15.3 100.016 16.22C100.016 17.14 100.203 17.8733 100.576 18.42C100.95 18.9533 101.476 19.22 102.156 19.22C102.836 19.22 103.356 18.9533 103.716 18.42C104.09 17.8733 104.276 17.14 104.276 16.22ZM109.625 11.34C110.131 11.1933 110.785 11.06 111.585 10.94C112.385 10.8067 113.225 10.74 114.105 10.74C114.998 10.74 115.738 10.86 116.325 11.1C116.925 11.3267 117.398 11.6533 117.745 12.08C118.091 12.5067 118.338 13.0133 118.485 13.6C118.631 14.1867 118.705 14.84 118.705 15.56V21.5H115.725V15.92C115.725 14.96 115.598 14.28 115.345 13.88C115.091 13.48 114.618 13.28 113.925 13.28C113.711 13.28 113.485 13.2933 113.245 13.32C113.005 13.3333 112.791 13.3533 112.605 13.38V21.5H109.625V11.34Z" fill="#2B2B2B"/>
</svg>
