<svg width="43" height="44" viewBox="0 0 43 44" fill="none" xmlns="http://www.w3.org/2000/svg">
<rect width="43" height="44" rx="7" fill="#F9FBFC"/>
<path d="M14.7609 13.6619C14.8315 13.5912 14.8668 13.5559 14.8979 13.5273C15.6631 12.8242 16.8392 12.8242 17.6044 13.5273C17.6355 13.5559 17.6708 13.5912 17.7415 13.6619L19.1996 15.1201C20.0017 15.9221 20.2311 17.1334 19.7778 18.1731C19.3246 19.2129 19.554 20.4242 20.356 21.2262L22.7529 23.623C23.5549 24.4251 24.7661 24.6545 25.8059 24.2012C26.8457 23.748 28.057 23.9774 28.859 24.7794L30.3172 26.2376C30.3878 26.3083 30.4232 26.3436 30.4518 26.3747C31.1548 27.1399 31.1548 28.316 30.4518 29.0811C30.4232 29.1123 30.3878 29.1476 30.3172 29.2182L29.4309 30.1046C28.7091 30.8264 27.6685 31.1294 26.6721 30.9079C19.8825 29.3991 14.5799 24.0966 13.0712 17.307C12.8497 16.3105 13.1527 15.27 13.8745 14.5482L14.7609 13.6619Z" stroke="#2D264B" stroke-width="1.5"/>
</svg>
