<svg xmlns="http://www.w3.org/2000/svg" width="138" height="40" viewBox="0 0 138 40" fill="none">
  <path d="M132.889 39.2151H5.11111C2.30128 39.2151 0 37.008 0 34.3132V4.90186C0 2.20705 2.30128 -2.6226e-05 5.11111 -2.6226e-05H132.889C135.699 -2.6226e-05 138 2.20705 138 4.90186V34.3132C138 37.008 135.699 39.2151 132.889 39.2151Z" fill="white"/>
  <path d="M9.89984 7.39072C9.59956 7.69218 9.42578 8.16154 9.42578 8.76937V30.4504C9.42578 31.0583 9.59956 31.5276 9.89984 31.8291L9.97395 31.8953L22.6418 19.7508V19.4641L9.97395 7.31964L9.89984 7.39072Z" fill="black"/>
  <path d="M28.3937 23.8015L24.1758 19.7513V19.4646L28.3988 15.4144L28.4934 15.4671L33.4946 18.1962C34.9219 18.9707 34.9219 20.2452 33.4946 21.0246L28.4934 23.7488L28.3937 23.8015Z" fill="black"/>
  <path d="M27.7256 24.5026L23.408 20.3617L10.666 32.5834C11.1401 33.0613 11.9131 33.1189 12.7922 32.641L27.7256 24.5026Z" fill="black"/>
  <path d="M27.7256 14.7131L12.7922 6.57477C11.9131 6.10174 11.1401 6.15934 10.666 6.63727L23.408 18.854L27.7256 14.7131Z" fill="black"/>
  <path d="M48.4713 10.0432C48.4713 10.8618 48.2157 11.5174 47.7123 12.0064C47.1334 12.586 46.3795 12.8777 45.4557 12.8777C44.5728 12.8777 43.8189 12.5811 43.2004 11.9966C42.5807 11.4034 42.2715 10.6755 42.2715 9.8042C42.2715 8.93289 42.5807 8.20496 43.2004 7.61673C43.8189 7.02728 44.5728 6.73071 45.4557 6.73071C45.8953 6.73071 46.3144 6.81772 46.7143 6.97948C47.113 7.14247 47.4375 7.36306 47.6726 7.63511L47.1385 8.15226C46.7284 7.68781 46.17 7.45864 45.4557 7.45864C44.8117 7.45864 44.2533 7.67433 43.7793 8.10937C43.3103 8.54564 43.0752 9.11058 43.0752 9.8042C43.0752 10.4978 43.3103 11.0677 43.7793 11.5039C44.2533 11.9341 44.8117 12.1547 45.4557 12.1547C46.1393 12.1547 46.7143 11.9341 47.1679 11.499C47.4669 11.211 47.6369 10.814 47.6816 10.3066H45.4557V9.59832H48.4253C48.461 9.7515 48.4713 9.89978 48.4713 10.0432Z" fill="black"/>
  <path d="M53.1826 7.58728H50.3932V9.45H52.9078V10.1583H50.3932V12.021H53.1826V12.7428H49.6035V6.86548H53.1826V7.58728Z" fill="black"/>
  <path d="M56.5065 12.7428H55.7168V7.58728H54.0059V6.86548H58.2187V7.58728H56.5065V12.7428Z" fill="black"/>
  <path d="M61.2676 12.7428V6.86548H62.056V12.7428H61.2676Z" fill="black"/>
  <path d="M65.5514 12.7428H64.7681V7.58728H63.0508V6.86548H67.2687V7.58728H65.5514V12.7428Z" fill="black"/>
  <path d="M75.2449 11.9868C74.6405 12.5811 73.8917 12.8777 72.9986 12.8777C72.1003 12.8777 71.3515 12.5811 70.7471 11.9868C70.144 11.3936 69.8438 10.6657 69.8438 9.8042C69.8438 8.94269 70.144 8.21476 70.7471 7.62163C71.3515 7.02728 72.1003 6.73071 72.9986 6.73071C73.8866 6.73071 74.6354 7.02728 75.2398 7.62653C75.848 8.22456 76.1483 8.94759 76.1483 9.8042C76.1483 10.6657 75.848 11.3936 75.2449 11.9868ZM71.3311 11.4941C71.786 11.9341 72.3392 12.1547 72.9986 12.1547C73.6528 12.1547 74.2112 11.9341 74.661 11.4941C75.1146 11.0542 75.3446 10.4892 75.3446 9.8042C75.3446 9.11916 75.1146 8.55422 74.661 8.11427C74.2112 7.67433 73.6528 7.45374 72.9986 7.45374C72.3392 7.45374 71.786 7.67433 71.3311 8.11427C70.8775 8.55422 70.6475 9.11916 70.6475 9.8042C70.6475 10.4892 70.8775 11.0542 71.3311 11.4941Z" fill="black"/>
  <path d="M77.2559 12.7428V6.86548H78.2142L81.194 11.4365H81.2285L81.194 10.3066V6.86548H81.9824V12.7428H81.1595L78.0391 7.94634H78.0046L78.0391 9.08113V12.7428H77.2559Z" fill="black"/>
  <path d="M69.6483 21.3253C67.2473 21.3253 65.2859 23.0777 65.2859 25.4956C65.2859 27.8938 67.2473 29.6646 69.6483 29.6646C72.0543 29.6646 74.0157 27.8938 74.0157 25.4956C74.0157 23.0777 72.0543 21.3253 69.6483 21.3253ZM69.6483 28.0225C68.3309 28.0225 67.1975 26.9796 67.1975 25.4956C67.1975 23.9919 68.3309 22.9674 69.6483 22.9674C70.9657 22.9674 72.1042 23.9919 72.1042 25.4956C72.1042 26.9796 70.9657 28.0225 69.6483 28.0225ZM60.1301 21.3253C57.7241 21.3253 55.7678 23.0777 55.7678 25.4956C55.7678 27.8938 57.7241 29.6646 60.1301 29.6646C62.5349 29.6646 64.4924 27.8938 64.4924 25.4956C64.4924 23.0777 62.5349 21.3253 60.1301 21.3253ZM60.1301 28.0225C58.8114 28.0225 57.6742 26.9796 57.6742 25.4956C57.6742 23.9919 58.8114 22.9674 60.1301 22.9674C61.4475 22.9674 62.5809 23.9919 62.5809 25.4956C62.5809 26.9796 61.4475 28.0225 60.1301 28.0225ZM48.8039 22.6035V24.3755H53.2161C53.087 25.3657 52.742 26.0936 52.213 26.601C51.569 27.2137 50.5659 27.8938 48.8039 27.8938C46.0886 27.8938 43.9624 25.7921 43.9624 23.188C43.9624 20.5839 46.0886 18.4822 48.8039 18.4822C50.2721 18.4822 51.3403 19.0324 52.1287 19.7457L53.4307 18.4969C52.328 17.4871 50.8611 16.7114 48.8039 16.7114C45.0804 16.7114 41.9512 19.617 41.9512 23.188C41.9512 26.759 45.0804 29.6646 48.8039 29.6646C50.8164 29.6646 52.328 29.0323 53.5163 27.846C54.7341 26.6782 55.1136 25.036 55.1136 23.7101C55.1136 23.2983 55.0778 22.9196 55.0139 22.6035H48.8039ZM95.1182 23.9772C94.7592 23.0446 93.6513 21.3253 91.3948 21.3253C89.1587 21.3253 87.2969 23.0152 87.2969 25.4956C87.2969 27.8313 89.1395 29.6646 91.6094 29.6646C93.6066 29.6646 94.7592 28.4968 95.2332 27.8166L93.751 26.8693C93.2565 27.5629 92.5831 28.0225 91.6094 28.0225C90.6422 28.0225 89.9483 27.5973 89.5037 26.759L95.3188 24.4515L95.1182 23.9772ZM89.1893 25.3657C89.1395 23.7579 90.4914 22.9343 91.4599 22.9343C92.2189 22.9343 92.8629 23.2983 93.0776 23.8191L89.1893 25.3657ZM84.4628 29.411H86.3744V17.1562H84.4628V29.411ZM81.3323 22.2542H81.2684C80.839 21.7665 80.02 21.3253 78.9824 21.3253C76.8051 21.3253 74.8143 23.1586 74.8143 25.5091C74.8143 27.846 76.8051 29.6646 78.9824 29.6646C80.02 29.6646 80.839 29.2198 81.2684 28.7173H81.3323V29.3154C81.3323 30.9097 80.4442 31.7663 79.0118 31.7663C77.8439 31.7663 77.1194 30.9575 76.8204 30.2774L75.158 30.9428C75.6372 32.0482 76.906 33.4084 79.0118 33.4084C81.253 33.4084 83.1442 32.1438 83.1442 29.0666V21.579H81.3323V22.2542ZM79.146 28.0225C77.8286 28.0225 76.7259 26.9649 76.7259 25.5091C76.7259 24.0397 77.8286 22.9674 79.146 22.9674C80.4442 22.9674 81.4677 24.0397 81.4677 25.5091C81.4677 26.9649 80.4442 28.0225 79.146 28.0225ZM104.068 17.1562H99.4959V29.411H101.402V24.7676H104.068C106.185 24.7676 108.261 23.2983 108.261 20.9613C108.261 18.6256 106.18 17.1562 104.068 17.1562ZM104.118 23.063H101.402V18.8609H104.118C105.541 18.8609 106.354 19.9944 106.354 20.9613C106.354 21.9098 105.541 23.063 104.118 23.063ZM115.903 21.302C114.525 21.302 113.093 21.8853 112.504 23.1782L114.195 23.8583C114.56 23.1782 115.229 22.9576 115.937 22.9576C116.926 22.9576 117.929 23.5275 117.944 24.5336V24.6623C117.599 24.4711 116.861 24.188 115.952 24.188C114.13 24.188 112.274 25.15 112.274 26.9453C112.274 28.5874 113.766 29.645 115.444 29.645C116.727 29.645 117.435 29.0899 117.879 28.4441H117.944V29.3913H119.786V24.6904C119.786 22.5177 118.094 21.302 115.903 21.302ZM115.673 28.0176C115.049 28.0176 114.18 27.721 114.18 26.9796C114.18 26.0311 115.264 25.6671 116.202 25.6671C117.041 25.6671 117.435 25.8448 117.944 26.0789C117.795 27.2137 116.777 28.0176 115.673 28.0176ZM126.494 21.5704L124.303 26.8828H124.237L121.972 21.5704H119.916L123.32 28.9943L121.378 33.1254H123.37L128.615 21.5704H126.494ZM109.309 29.411H111.221V17.1562H109.309V29.411Z" fill="black"/>
</svg>