<svg width="44" height="44" viewBox="0 0 44 44" fill="none" xmlns="http://www.w3.org/2000/svg">
<rect x="0.5" width="43" height="44" rx="7" fill="#F9FBFC"/>
<path d="M21.75 29C21.75 29.4142 22.0858 29.75 22.5 29.75C22.9142 29.75 23.25 29.4142 23.25 29L21.75 29ZM23.25 15C23.25 14.5858 22.9142 14.25 22.5 14.25C22.0858 14.25 21.75 14.5858 21.75 15H23.25ZM24.9377 18.4517C25.1448 18.8105 25.6035 18.9334 25.9622 18.7263C26.3209 18.5192 26.4438 18.0605 26.2367 17.7017L24.9377 18.4517ZM25.2116 17.4262L25.8611 17.0512L25.2116 17.4262ZM21.63 21.68L21.8889 20.9761L21.63 21.68ZM23.3701 22.32L23.629 21.6161L23.629 21.6161L23.3701 22.32ZM19.7885 26.5738L19.139 26.9488H19.139L19.7885 26.5738ZM20.0624 25.5483C19.8553 25.1895 19.3966 25.0666 19.0379 25.2737C18.6792 25.4808 18.5563 25.9395 18.7634 26.2983L20.0624 25.5483ZM23.8278 27.6561L23.4528 27.0066L23.8278 27.6561ZM21.1723 16.3439L21.5473 16.9934L21.1723 16.3439ZM15.5611 30.0451L16.0019 29.4383L15.5611 30.0451ZM14.4549 28.9389L15.0617 28.4981L14.4549 28.9389ZM30.5451 28.9389L29.9383 28.4981L30.5451 28.9389ZM29.4389 30.0451L28.9981 29.4383L29.4389 30.0451ZM29.4389 13.9549L28.9981 14.5617L29.4389 13.9549ZM30.5451 15.0611L29.9383 15.5019L30.5451 15.0611ZM15.5611 13.9549L16.0019 14.5617L15.5611 13.9549ZM14.4549 15.0611L15.0617 15.5019L14.4549 15.0611ZM26.2367 17.7017L25.8611 17.0512L24.5621 17.8012L24.9377 18.4517L26.2367 17.7017ZM20.438 26.1988L20.0624 25.5483L18.7634 26.2983L19.139 26.9488L20.438 26.1988ZM23.1112 23.0239C24.8673 23.6699 25.0733 26.071 23.4528 27.0066L24.2028 28.3056C26.9247 26.7341 26.5787 22.7011 23.629 21.6161L23.1112 23.0239ZM20.7973 15.6944C18.0754 17.2659 18.4214 21.2989 21.3711 22.3839L21.8889 20.9761C20.1328 20.3301 19.9268 17.929 21.5473 16.9934L20.7973 15.6944ZM22.5 30.25C20.6084 30.25 19.25 30.249 18.198 30.135C17.1601 30.0225 16.5099 29.8074 16.0019 29.4383L15.1202 30.6518C15.9266 31.2377 16.8709 31.5 18.0365 31.6263C19.188 31.751 20.6418 31.75 22.5 31.75V30.25ZM12.75 22C12.75 23.8582 12.749 25.312 12.8737 26.4635C13 27.6291 13.2623 28.5734 13.8482 29.3798L15.0617 28.4981C14.6926 27.9901 14.4775 27.3399 14.365 26.302C14.251 25.25 14.25 23.8916 14.25 22H12.75ZM16.0019 29.4383C15.6411 29.1762 15.3238 28.8589 15.0617 28.4981L13.8482 29.3798C14.2028 29.8679 14.6321 30.2972 15.1202 30.6518L16.0019 29.4383ZM30.75 22C30.75 23.8916 30.749 25.25 30.635 26.302C30.5225 27.3399 30.3074 27.9901 29.9383 28.4981L31.1518 29.3798C31.7377 28.5734 32 27.6291 32.1263 26.4635C32.251 25.312 32.25 23.8582 32.25 22H30.75ZM22.5 31.75C24.3582 31.75 25.812 31.751 26.9635 31.6263C28.1291 31.5 29.0734 31.2377 29.8798 30.6518L28.9981 29.4383C28.4901 29.8074 27.8399 30.0225 26.802 30.135C25.75 30.249 24.3916 30.25 22.5 30.25V31.75ZM29.9383 28.4981C29.6762 28.8589 29.3589 29.1762 28.9981 29.4383L29.8798 30.6518C30.3679 30.2972 30.7972 29.8679 31.1518 29.3798L29.9383 28.4981ZM22.5 13.75C24.3916 13.75 25.75 13.751 26.802 13.865C27.8399 13.9775 28.4901 14.1926 28.9981 14.5617L29.8798 13.3482C29.0734 12.7623 28.1291 12.5 26.9635 12.3737C25.812 12.249 24.3582 12.25 22.5 12.25V13.75ZM32.25 22C32.25 20.1418 32.251 18.688 32.1263 17.5365C32 16.3709 31.7377 15.4266 31.1518 14.6202L29.9383 15.5019C30.3074 16.0099 30.5225 16.6601 30.635 17.698C30.749 18.75 30.75 20.1084 30.75 22H32.25ZM28.9981 14.5617C29.3589 14.8238 29.6762 15.1411 29.9383 15.5019L31.1518 14.6202C30.7972 14.1321 30.3679 13.7028 29.8798 13.3482L28.9981 14.5617ZM22.5 12.25C20.6418 12.25 19.188 12.249 18.0365 12.3737C16.8709 12.5 15.9266 12.7623 15.1202 13.3482L16.0019 14.5617C16.5099 14.1926 17.1601 13.9775 18.198 13.865C19.25 13.751 20.6084 13.75 22.5 13.75V12.25ZM14.25 22C14.25 20.1084 14.251 18.75 14.365 17.698C14.4775 16.6601 14.6926 16.0099 15.0617 15.5019L13.8482 14.6202C13.2623 15.4266 13 16.3709 12.8737 17.5365C12.749 18.688 12.75 20.1418 12.75 22H14.25ZM15.1202 13.3482C14.6321 13.7028 14.2028 14.1321 13.8482 14.6202L15.0617 15.5019C15.3238 15.1411 15.6411 14.8238 16.0019 14.5617L15.1202 13.3482ZM25.8611 17.0512C25.1409 15.8037 23.8055 15.1344 22.4624 15.2019L22.5376 16.7C23.3406 16.6597 24.1341 17.06 24.5621 17.8012L25.8611 17.0512ZM22.4624 15.2019C21.8932 15.2305 21.3225 15.3911 20.7973 15.6944L21.5473 16.9934C21.8619 16.8118 22.2005 16.717 22.5376 16.7L22.4624 15.2019ZM23.25 15.951V15H21.75V15.951H23.25ZM23.2501 22L23.25 15.951L21.75 15.951L21.7501 22L23.2501 22ZM21.3711 22.3839L22.2411 22.7039L22.759 21.2961L21.8889 20.9761L21.3711 22.3839ZM22.2411 22.7039L23.1112 23.0239L23.629 21.6161L22.759 21.2961L22.2411 22.7039ZM23.25 29L23.25 28.049L21.75 28.049L21.75 29L23.25 29ZM23.25 28.049L23.2501 22L21.7501 22L21.75 28.049L23.25 28.049ZM23.4528 27.0066C23.1382 27.1882 22.7996 27.2831 22.4624 27.3L22.5376 28.7981C23.1068 28.7695 23.6775 28.6089 24.2028 28.3056L23.4528 27.0066ZM22.4624 27.3C21.6595 27.3403 20.8659 26.94 20.438 26.1988L19.139 26.9488C19.8592 28.1963 21.1945 28.8655 22.5376 28.7981L22.4624 27.3Z" fill="#2D264B"/>
</svg>
