<svg xmlns="http://www.w3.org/2000/svg" width="32" height="31" viewBox="0 0 32 31" fill="none">
  <path d="M14.5775 1.84618C15.1484 0.649674 16.8516 0.649675 17.4225 1.84618L20.6806 8.67394C21.019 9.38311 21.6932 9.87294 22.4722 9.97563L29.9726 10.9643C31.2869 11.1376 31.8132 12.7574 30.8517 13.6701L25.3649 18.8786C24.795 19.4196 24.5375 20.2121 24.6806 20.9848L26.058 28.4236C26.2994 29.7271 24.9215 30.7282 23.7564 30.0958L17.1073 26.4871C16.4167 26.1123 15.5833 26.1123 14.8927 26.4871L8.24364 30.0958C7.07845 30.7282 5.70058 29.7271 5.94197 28.4236L7.31941 20.9848C7.46248 20.2121 7.20496 19.4196 6.63508 18.8786L1.14828 13.6701C0.186766 12.7574 0.713067 11.1376 2.02744 10.9643L9.52782 9.97563C10.3069 9.87294 10.981 9.38311 11.3194 8.67394L14.5775 1.84618Z" stroke="#2C6763" stroke-opacity="0.99" stroke-width="0.745098"/>
</svg>