<svg xmlns="http://www.w3.org/2000/svg" width="43" height="41" viewBox="0 0 43 41" fill="none">
<path d="M23.4092 2.16198L27.7818 11.3256C28.236 12.2773 29.1408 12.9347 30.1863 13.0726L40.2526 14.3995C42.0167 14.632 42.723 16.8059 41.4326 18.0309L34.0687 25.0213C33.3039 25.7473 32.9582 26.811 33.1503 27.848L34.9989 37.8316C35.3229 39.5812 33.4737 40.9247 31.9098 40.076L22.9861 35.2327C22.0592 34.7296 20.9408 34.7296 20.0139 35.2327L11.0902 40.076C9.52635 40.9247 7.6771 39.5812 8.00106 37.8316L9.84974 27.848C10.0418 26.811 9.69614 25.7473 8.93129 25.0213L1.56743 18.0309C0.276977 16.8059 0.983328 14.632 2.74736 14.3995L12.8137 13.0726C13.8592 12.9347 14.764 12.2773 15.2182 11.3256L19.5908 2.16198C20.3571 0.556144 22.6429 0.556145 23.4092 2.16198Z" stroke="#2C6763" stroke-opacity="0.99"/>
</svg>