<svg xmlns="http://www.w3.org/2000/svg" width="21" height="17" viewBox="0 0 21 17" fill="none">
  <path d="M13.905 2.1778C13.145 2.17767 12.4153 2.47592 11.8729 3.00837C11.3305 3.54081 11.0189 4.26489 11.005 5.0248L10.977 6.5998C10.9754 6.68436 10.9559 6.76763 10.9198 6.84412C10.8837 6.92062 10.8319 6.98863 10.7676 7.04368C10.7034 7.09873 10.6283 7.13958 10.5472 7.16356C10.4661 7.18754 10.3808 7.19409 10.297 7.1828L8.736 6.9708C6.682 6.6908 4.714 5.7448 2.826 4.1718C2.228 7.4818 3.396 9.7748 6.209 11.5438L7.956 12.6418C8.03901 12.694 8.10797 12.7657 8.15685 12.8507C8.20573 12.9356 8.23304 13.0313 8.23639 13.1293C8.23975 13.2273 8.21905 13.3246 8.17609 13.4127C8.13314 13.5008 8.06924 13.5771 7.99 13.6348L6.398 14.7978C7.345 14.8568 8.244 14.8148 8.99 14.6668C13.708 13.7248 16.845 10.1748 16.845 4.3188C16.845 3.8408 15.833 2.1778 13.905 2.1778ZM9.005 4.9878C9.02245 4.02385 9.32389 3.08647 9.87156 2.29302C10.4192 1.49957 11.1888 0.885319 12.0839 0.527167C12.979 0.169014 13.9599 0.0828794 14.9037 0.279547C15.8476 0.476215 16.7124 0.946945 17.39 1.6328C18.101 1.6278 18.706 1.8078 20.059 0.9878C19.724 2.6278 19.559 3.3398 18.845 4.3188C18.845 11.9608 14.148 15.6768 9.382 16.6278C6.114 17.2798 1.362 16.2088 1.02362e-07 14.7868C0.694 14.7328 3.514 14.4298 5.144 13.2368C3.765 12.3278 -1.724 9.0978 1.883 0.4138C3.576 2.3908 5.293 3.7368 7.033 4.4508C8.191 4.9258 8.475 4.9158 9.006 4.9888L9.005 4.9878Z" fill="black"/>
</svg>