<svg width="43" height="44" viewBox="0 0 43 44" fill="none" xmlns="http://www.w3.org/2000/svg">
<rect width="43" height="44" rx="7" fill="#F9FBFC"/>
<path d="M14.3867 31.2632L14.7786 30.6237L14.3867 31.2632ZM12.736 29.6125L13.3755 29.2206H13.3755L12.736 29.6125ZM31.2624 29.6125L30.6229 29.2206L31.2624 29.6125ZM29.6117 31.2632L29.2198 30.6237L29.6117 31.2632ZM29.6117 15.7368L29.2198 16.3763L29.6117 15.7368ZM31.2624 17.3875L30.6229 17.7794L31.2624 17.3875ZM14.3867 15.7368L14.7786 16.3763H14.7786L14.3867 15.7368ZM12.736 17.3875L13.3755 17.7794H13.3755L12.736 17.3875ZM28.476 12.5464L29.0172 12.0273V12.0273L28.476 12.5464ZM13.8434 12.8908L14.2962 13.4886V13.4886L13.8434 12.8908ZM12.8536 13.9227L13.4689 14.3515L12.8536 13.9227ZM28.9992 15.1303H29.7492L29.7492 15.1266L28.9992 15.1303ZM28.3628 23.6137C28.777 23.6137 29.1128 23.2779 29.1128 22.8637C29.1128 22.4494 28.777 22.1137 28.3628 22.1137V23.6137ZM25.6355 22.1137C25.2213 22.1137 24.8855 22.4494 24.8855 22.8637C24.8855 23.2779 25.2213 23.6137 25.6355 23.6137V22.1137ZM20.4992 15.75H23.4992V14.25H20.4992V15.75ZM23.4992 31.25H20.4992V32.75H23.4992V31.25ZM20.4992 31.25C18.8479 31.25 17.6622 31.2492 16.7373 31.1613C15.8235 31.0744 15.2421 30.9078 14.7786 30.6237L13.9948 31.9027C14.7336 32.3554 15.5717 32.5572 16.5953 32.6545C17.6077 32.7508 18.877 32.75 20.4992 32.75V31.25ZM11.2492 23.5C11.2492 25.1222 11.2484 26.3915 11.3446 27.4039C11.442 28.4274 11.6437 29.2655 12.0965 30.0044L13.3755 29.2206C13.0914 28.7571 12.9248 28.1757 12.8379 27.2619C12.75 26.337 12.7492 25.1512 12.7492 23.5H11.2492ZM14.7786 30.6237C14.2067 30.2733 13.7259 29.7925 13.3755 29.2206L12.0965 30.0044C12.5706 30.7781 13.2211 31.4286 13.9948 31.9027L14.7786 30.6237ZM23.4992 32.75C25.1214 32.75 26.3907 32.7508 27.4031 32.6545C28.4266 32.5572 29.2647 32.3554 30.0035 31.9027L29.2198 30.6237C28.7563 30.9078 28.1748 31.0744 27.2611 31.1613C26.3362 31.2492 25.1504 31.25 23.4992 31.25V32.75ZM30.6229 29.2206C30.2725 29.7925 29.7917 30.2733 29.2198 30.6237L30.0035 31.9027C30.7772 31.4286 31.4277 30.7781 31.9019 30.0044L30.6229 29.2206ZM29.2198 16.3763C29.7917 16.7267 30.2725 17.2075 30.6229 17.7794L31.9019 16.9956C31.4277 16.2219 30.7772 15.5714 30.0035 15.0973L29.2198 16.3763ZM20.4992 14.25C18.877 14.25 17.6077 14.2492 16.5953 14.3455C15.5717 14.4428 14.7336 14.6446 13.9948 15.0973L14.7786 16.3763C15.2421 16.0922 15.8235 15.9256 16.7373 15.8387C17.6622 15.7508 18.8479 15.75 20.4992 15.75V14.25ZM12.7492 23.5C12.7492 21.8488 12.75 20.663 12.8379 19.7381C12.9248 18.8243 13.0914 18.2429 13.3755 17.7794L12.0965 16.9956C11.6437 17.7345 11.442 18.5726 11.3446 19.5961C11.2484 20.6085 11.2492 21.8778 11.2492 23.5H12.7492ZM13.9948 15.0973C13.2211 15.5714 12.5706 16.2219 12.0965 16.9956L13.3755 17.7794C13.7259 17.2075 14.2067 16.7267 14.7786 16.3763L13.9948 15.0973ZM20.0522 12.75H25.421V11.25H20.0522V12.75ZM25.421 12.75C26.2867 12.75 26.8573 12.7517 27.2805 12.811C27.6788 12.8669 27.8338 12.9604 27.9347 13.0656L29.0172 12.0273C28.594 11.5861 28.0651 11.4064 27.4887 11.3256C26.9373 11.2483 26.2425 11.25 25.421 11.25V12.75ZM20.0522 11.25C18.392 11.25 17.0841 11.2489 16.0465 11.3661C14.9928 11.4851 14.1289 11.7337 13.3905 12.2929L14.2962 13.4886C14.734 13.1571 15.2968 12.9603 16.2148 12.8566C17.1488 12.7511 18.3572 12.75 20.0522 12.75V11.25ZM12.7492 20.3956C12.7492 18.6306 12.7501 17.3647 12.852 16.3847C12.9525 15.417 13.1447 14.8168 13.4689 14.3515L12.2383 13.4939C11.7081 14.2546 11.473 15.1419 11.36 16.2297C11.2482 17.3052 11.2492 18.6627 11.2492 20.3956H12.7492ZM13.3905 12.2929C12.9472 12.6287 12.5586 13.0342 12.2383 13.4939L13.4689 14.3515C13.7005 14.0192 13.9799 13.7282 14.2962 13.4886L13.3905 12.2929ZM29.7492 15.1266C29.7458 14.45 29.7314 13.8636 29.6467 13.3775C29.5586 12.8723 29.3846 12.4103 29.0172 12.0273L27.9347 13.0656C28.028 13.1629 28.1123 13.3099 28.1689 13.6351C28.2289 13.9793 28.2458 14.4447 28.2492 15.134L29.7492 15.1266ZM11.2492 20.3956C11.2492 21.3713 11.229 22.2642 11.2494 23.0202L12.7489 22.9798C12.7291 22.2482 12.7492 21.424 12.7492 20.3956H11.2492ZM31.4991 24.8409H25.6355V26.3409H31.4991V24.8409ZM22.1583 22.8637C22.1583 24.7841 23.7151 26.3409 25.6355 26.3409V24.8409C24.5435 24.8409 23.6583 23.9557 23.6583 22.8637H22.1583ZM23.6583 22.8637C23.6583 21.7716 24.5435 20.8864 25.6355 20.8864V19.3864C23.7151 19.3864 22.1583 20.9432 22.1583 22.8637H23.6583ZM28.3628 22.1137H25.6355V23.6137H28.3628V22.1137ZM23.4992 15.75C24.8838 15.75 25.9441 15.7503 26.8027 15.8033C27.6605 15.8562 28.2602 15.9594 28.7329 16.139L29.2654 14.7367C28.5854 14.4784 27.8111 14.3627 26.8951 14.3061C25.9799 14.2497 24.8666 14.25 23.4992 14.25V15.75ZM28.7329 16.139C28.91 16.2062 29.0702 16.2846 29.2198 16.3763L30.0035 15.0973C29.7701 14.9543 29.5252 14.8353 29.2654 14.7367L28.7329 16.139ZM28.2492 15.1303V15.4378H29.7492V15.1303H28.2492ZM25.6355 20.8864H31.9436V19.3864H25.6355V20.8864ZM32.7492 23.5C32.7492 22.1255 32.7495 21.0077 32.6921 20.0896L31.195 20.1832C31.2488 21.0439 31.2492 22.108 31.2492 23.5H32.7492ZM32.6921 20.0896C32.6137 18.8348 32.4239 17.8475 31.9019 16.9956L30.6229 17.7794C30.9518 18.3161 31.1215 19.0071 31.195 20.1832L32.6921 20.0896ZM31.2492 23.5C31.2492 24.2875 31.2492 24.9722 31.2391 25.5785L32.7389 25.6034C32.7492 24.9821 32.7492 24.2839 32.7492 23.5H31.2492ZM31.2391 25.5785C31.2066 27.537 31.0626 28.5031 30.6229 29.2206L31.9019 30.0044C32.582 28.8944 32.7069 27.5313 32.7389 25.6034L31.2391 25.5785ZM31.4991 26.3409H31.989V24.8409H31.4991V26.3409Z" fill="#2D264B"/>
</svg>
